<svg width="2000" height="400" viewBox="0 0 2000 400" fill="none" xmlns="http://www.w3.org/2000/svg">
<g clip-path="url(#clip0_342_17142)">
<rect width="2000" height="400" rx="20" fill="#FFF8E2"/>
<path d="M0 319H2000V380C2000 391.046 1991.05 400 1980 400H20C8.95429 400 0 391.046 0 380V319Z" fill="#765D3A"/>
<path d="M739.673 369V366.119L746.404 359.887C746.977 359.333 747.457 358.835 747.844 358.391C748.238 357.948 748.537 357.514 748.74 357.089C748.943 356.659 749.045 356.194 749.045 355.695C749.045 355.141 748.919 354.664 748.666 354.264C748.414 353.858 748.069 353.547 747.632 353.332C747.195 353.11 746.7 352.999 746.146 352.999C745.567 352.999 745.062 353.116 744.631 353.35C744.201 353.584 743.868 353.92 743.634 354.357C743.4 354.794 743.283 355.314 743.283 355.917H739.489C739.489 354.68 739.769 353.606 740.329 352.695C740.889 351.784 741.674 351.079 742.683 350.58C743.693 350.082 744.856 349.832 746.173 349.832C747.527 349.832 748.706 350.072 749.71 350.553C750.719 351.027 751.504 351.685 752.064 352.528C752.624 353.372 752.904 354.338 752.904 355.428C752.904 356.142 752.763 356.846 752.479 357.542C752.202 358.237 751.707 359.01 750.993 359.859C750.279 360.703 749.272 361.715 747.974 362.897L745.213 365.602V365.732H753.153V369H739.673ZM763.464 369.415C761.876 369.409 760.51 369.018 759.365 368.243C758.226 367.467 757.349 366.344 756.733 364.873C756.124 363.402 755.823 361.632 755.829 359.564C755.829 357.502 756.133 355.745 756.743 354.292C757.358 352.839 758.235 351.734 759.374 350.977C760.519 350.214 761.882 349.832 763.464 349.832C765.046 349.832 766.407 350.214 767.545 350.977C768.69 351.741 769.57 352.848 770.186 354.301C770.801 355.748 771.106 357.502 771.1 359.564C771.1 361.638 770.792 363.411 770.177 364.882C769.567 366.353 768.693 367.477 767.555 368.252C766.416 369.028 765.052 369.415 763.464 369.415ZM763.464 366.101C764.548 366.101 765.412 365.556 766.059 364.467C766.705 363.377 767.025 361.743 767.019 359.564C767.019 358.13 766.871 356.936 766.576 355.982C766.287 355.027 765.874 354.31 765.339 353.83C764.809 353.35 764.184 353.11 763.464 353.11C762.387 353.11 761.525 353.649 760.879 354.726C760.233 355.803 759.907 357.416 759.9 359.564C759.9 361.017 760.045 362.229 760.334 363.202C760.63 364.168 761.045 364.894 761.581 365.381C762.116 365.861 762.744 366.101 763.464 366.101ZM773.951 369V366.119L780.681 359.887C781.254 359.333 781.734 358.835 782.122 358.391C782.516 357.948 782.814 357.514 783.017 357.089C783.221 356.659 783.322 356.194 783.322 355.695C783.322 355.141 783.196 354.664 782.944 354.264C782.691 353.858 782.346 353.547 781.909 353.332C781.472 353.11 780.977 352.999 780.423 352.999C779.844 352.999 779.34 353.116 778.909 353.35C778.478 353.584 778.145 353.92 777.912 354.357C777.678 354.794 777.561 355.314 777.561 355.917H773.766C773.766 354.68 774.046 353.606 774.606 352.695C775.166 351.784 775.951 351.079 776.961 350.58C777.97 350.082 779.133 349.832 780.451 349.832C781.805 349.832 782.984 350.072 783.987 350.553C784.996 351.027 785.781 351.685 786.341 352.528C786.901 353.372 787.181 354.338 787.181 355.428C787.181 356.142 787.04 356.846 786.757 357.542C786.48 358.237 785.984 359.01 785.27 359.859C784.556 360.703 783.55 361.715 782.251 362.897L779.49 365.602V365.732H787.431V369H773.951ZM789.635 365.676V362.528L797.529 350.091H800.244V354.449H798.637L793.661 362.325V362.472H804.879V365.676H789.635ZM798.711 369V364.716L798.785 363.322V350.091H802.534V369H798.711ZM809.523 369.24C808.914 369.24 808.39 369.025 807.953 368.594C807.522 368.157 807.307 367.634 807.307 367.024C807.307 366.421 807.522 365.904 807.953 365.473C808.39 365.042 808.914 364.827 809.523 364.827C810.114 364.827 810.631 365.042 811.074 365.473C811.517 365.904 811.739 366.421 811.739 367.024C811.739 367.43 811.634 367.803 811.425 368.141C811.222 368.474 810.954 368.741 810.622 368.945C810.289 369.142 809.923 369.24 809.523 369.24ZM821.583 369.415C819.995 369.409 818.629 369.018 817.484 368.243C816.345 367.467 815.468 366.344 814.853 364.873C814.243 363.402 813.942 361.632 813.948 359.564C813.948 357.502 814.252 355.745 814.862 354.292C815.477 352.839 816.355 351.734 817.493 350.977C818.638 350.214 820.002 349.832 821.583 349.832C823.165 349.832 824.526 350.214 825.664 350.977C826.809 351.741 827.69 352.848 828.305 354.301C828.921 355.748 829.225 357.502 829.219 359.564C829.219 361.638 828.911 363.411 828.296 364.882C827.686 366.353 826.812 367.477 825.674 368.252C824.535 369.028 823.172 369.415 821.583 369.415ZM821.583 366.101C822.667 366.101 823.532 365.556 824.178 364.467C824.824 363.377 825.144 361.743 825.138 359.564C825.138 358.13 824.99 356.936 824.695 355.982C824.406 355.027 823.993 354.31 823.458 353.83C822.928 353.35 822.304 353.11 821.583 353.11C820.506 353.11 819.645 353.649 818.998 354.726C818.352 355.803 818.026 357.416 818.02 359.564C818.02 361.017 818.164 362.229 818.453 363.202C818.749 364.168 819.164 364.894 819.7 365.381C820.235 365.861 820.863 366.101 821.583 366.101ZM838.911 349.832C839.884 349.832 840.82 349.996 841.718 350.322C842.623 350.648 843.429 351.168 844.137 351.882C844.851 352.596 845.414 353.544 845.827 354.726C846.245 355.902 846.458 357.345 846.464 359.056C846.464 360.663 846.282 362.097 845.919 363.359C845.562 364.614 845.048 365.682 844.377 366.562C843.706 367.443 842.897 368.114 841.949 368.575C841.001 369.031 839.942 369.259 838.773 369.259C837.511 369.259 836.397 369.015 835.431 368.529C834.464 368.037 833.686 367.369 833.095 366.526C832.51 365.676 832.156 364.722 832.033 363.663H835.975C836.129 364.353 836.452 364.888 836.945 365.27C837.437 365.645 838.047 365.833 838.773 365.833C840.004 365.833 840.94 365.298 841.58 364.227C842.22 363.149 842.543 361.675 842.549 359.804H842.42C842.137 360.358 841.755 360.835 841.275 361.235C840.795 361.629 840.244 361.934 839.622 362.149C839.007 362.365 838.351 362.472 837.656 362.472C836.542 362.472 835.548 362.211 834.673 361.688C833.799 361.164 833.11 360.444 832.605 359.527C832.101 358.61 831.848 357.563 831.848 356.388C831.842 355.12 832.134 353.99 832.725 352.999C833.316 352.008 834.141 351.233 835.2 350.673C836.265 350.106 837.502 349.826 838.911 349.832ZM838.939 352.972C838.317 352.972 837.763 353.119 837.277 353.415C836.797 353.71 836.415 354.107 836.132 354.606C835.855 355.104 835.72 355.661 835.726 356.277C835.726 356.899 835.861 357.459 836.132 357.957C836.409 358.45 836.785 358.844 837.259 359.139C837.739 359.429 838.287 359.573 838.902 359.573C839.364 359.573 839.792 359.487 840.186 359.315C840.579 359.142 840.921 358.905 841.21 358.604C841.506 358.296 841.737 357.942 841.903 357.542C842.069 357.142 842.152 356.717 842.152 356.268C842.146 355.671 842.004 355.123 841.727 354.624C841.45 354.126 841.069 353.726 840.583 353.424C840.096 353.122 839.548 352.972 838.939 352.972ZM850.808 369.24C850.199 369.24 849.675 369.025 849.238 368.594C848.808 368.157 848.592 367.634 848.592 367.024C848.592 366.421 848.808 365.904 849.238 365.473C849.675 365.042 850.199 364.827 850.808 364.827C851.399 364.827 851.916 365.042 852.359 365.473C852.802 365.904 853.024 366.421 853.024 367.024C853.024 367.43 852.919 367.803 852.71 368.141C852.507 368.474 852.239 368.741 851.907 368.945C851.574 369.142 851.208 369.24 850.808 369.24ZM862.869 369.415C861.281 369.409 859.914 369.018 858.769 368.243C857.63 367.467 856.753 366.344 856.138 364.873C855.528 363.402 855.227 361.632 855.233 359.564C855.233 357.502 855.538 355.745 856.147 354.292C856.763 352.839 857.64 351.734 858.778 350.977C859.923 350.214 861.287 349.832 862.869 349.832C864.451 349.832 865.811 350.214 866.95 350.977C868.094 351.741 868.975 352.848 869.59 354.301C870.206 355.748 870.51 357.502 870.504 359.564C870.504 361.638 870.196 363.411 869.581 364.882C868.972 366.353 868.098 367.477 866.959 368.252C865.82 369.028 864.457 369.415 862.869 369.415ZM862.869 366.101C863.952 366.101 864.817 365.556 865.463 364.467C866.109 363.377 866.429 361.743 866.423 359.564C866.423 358.13 866.276 356.936 865.98 355.982C865.691 355.027 865.278 354.31 864.743 353.83C864.214 353.35 863.589 353.11 862.869 353.11C861.791 353.11 860.93 353.649 860.283 354.726C859.637 355.803 859.311 357.416 859.305 359.564C859.305 361.017 859.449 362.229 859.739 363.202C860.034 364.168 860.45 364.894 860.985 365.381C861.521 365.861 862.148 366.101 862.869 366.101ZM881.581 350.091V369H877.584V353.886H877.473L873.143 356.6V353.055L877.824 350.091H881.581ZM886.98 359.545C886.98 357.256 887.285 355.147 887.895 353.221C888.51 351.294 889.449 349.509 890.711 347.866H894.468C893.988 348.475 893.542 349.22 893.13 350.1C892.717 350.974 892.357 351.934 892.049 352.981C891.742 354.027 891.502 355.111 891.329 356.231C891.157 357.345 891.071 358.45 891.071 359.545C891.071 361.004 891.218 362.478 891.514 363.968C891.815 365.451 892.222 366.83 892.733 368.104C893.25 369.379 893.828 370.422 894.468 371.234H890.711C889.449 369.591 888.51 367.806 887.895 365.879C887.285 363.953 886.98 361.841 886.98 359.545ZM916.19 347.29V359.276H912.732V347.29H916.19ZM899.966 353.452C899.966 355.168 901.292 356.156 903.06 356.156C904.828 356.156 906.102 355.168 906.102 353.452C906.102 351.762 904.828 350.748 903.06 350.748C901.292 350.748 899.966 351.762 899.966 353.452ZM909.43 353.452C909.43 356.65 906.7 358.938 903.06 358.938C899.394 358.938 896.638 356.65 896.638 353.452C896.638 350.28 899.394 347.992 903.06 347.992C906.7 347.992 909.43 350.28 909.43 353.452ZM903.658 368.298H916.788V370.95H900.252V364.346H912.784V362.89H900.226V360.264H916.19V366.79H903.658V368.298ZM927.298 361.42C927.298 363.716 926.991 365.827 926.375 367.754C925.766 369.68 924.83 371.465 923.568 373.109H919.811C920.291 372.499 920.737 371.754 921.149 370.874C921.562 369.994 921.922 369.034 922.23 367.994C922.537 366.947 922.777 365.864 922.95 364.744C923.122 363.623 923.208 362.515 923.208 361.42C923.208 359.961 923.057 358.49 922.756 357.006C922.46 355.517 922.054 354.138 921.537 352.87C921.026 351.596 920.451 350.553 919.811 349.74H923.568C924.83 351.384 925.766 353.169 926.375 355.095C926.991 357.022 927.298 359.13 927.298 361.42ZM937.741 362.048C937.704 360.884 937.846 359.899 938.166 359.093C938.486 358.287 938.95 357.674 939.56 357.256C940.175 356.837 940.899 356.628 941.73 356.628C942.308 356.628 942.862 356.748 943.392 356.988C943.921 357.228 944.521 357.643 945.192 358.234C945.549 358.548 945.851 358.788 946.097 358.955C946.343 359.115 946.626 359.195 946.946 359.195C947.383 359.195 947.743 359.025 948.026 358.687C948.31 358.342 948.442 357.797 948.423 357.053H951.433C951.477 358.222 951.335 359.21 951.009 360.016C950.682 360.823 950.212 361.435 949.596 361.854C948.981 362.272 948.263 362.482 947.445 362.482C946.835 362.482 946.263 362.355 945.727 362.103C945.198 361.844 944.61 361.432 943.964 360.866C943.582 360.527 943.278 360.284 943.05 360.136C942.822 359.982 942.551 359.906 942.237 359.906C941.8 359.906 941.44 360.072 941.157 360.404C940.874 360.73 940.742 361.278 940.76 362.048H937.741ZM960.978 369V366.119L967.709 359.887C968.281 359.333 968.761 358.835 969.149 358.391C969.543 357.948 969.842 357.514 970.045 357.089C970.248 356.659 970.349 356.194 970.349 355.695C970.349 355.141 970.223 354.664 969.971 354.264C969.719 353.858 969.374 353.547 968.937 353.332C968.5 353.11 968.004 352.999 967.45 352.999C966.872 352.999 966.367 353.116 965.936 353.35C965.505 353.584 965.173 353.92 964.939 354.357C964.705 354.794 964.588 355.314 964.588 355.917H960.793C960.793 354.68 961.073 353.606 961.634 352.695C962.194 351.784 962.978 351.079 963.988 350.58C964.997 350.082 966.161 349.832 967.478 349.832C968.832 349.832 970.011 350.072 971.014 350.553C972.024 351.027 972.808 351.685 973.369 352.528C973.929 353.372 974.209 354.338 974.209 355.428C974.209 356.142 974.067 356.846 973.784 357.542C973.507 358.237 973.012 359.01 972.298 359.859C971.584 360.703 970.577 361.715 969.278 362.897L966.518 365.602V365.732H974.458V369H960.978ZM976.662 365.676V362.528L984.557 350.091H987.271V354.449H985.665L980.688 362.325V362.472H991.906V365.676H976.662ZM985.738 369V364.716L985.812 363.322V350.091H989.561V369H985.738ZM996.55 369.24C995.941 369.24 995.418 369.025 994.981 368.594C994.55 368.157 994.334 367.634 994.334 367.024C994.334 366.421 994.55 365.904 994.981 365.473C995.418 365.042 995.941 364.827 996.55 364.827C997.141 364.827 997.658 365.042 998.101 365.473C998.545 365.904 998.766 366.421 998.766 367.024C998.766 367.43 998.662 367.803 998.452 368.141C998.249 368.474 997.981 368.741 997.649 368.945C997.317 369.142 996.95 369.24 996.55 369.24ZM1007.82 350.091V369H1003.83V353.886H1003.72L999.385 356.6V353.055L1004.07 350.091H1007.82ZM1020.54 350.091V369H1016.55V353.886H1016.44L1012.11 356.6V353.055L1016.79 350.091H1020.54ZM1026.36 369.24C1025.75 369.24 1025.23 369.025 1024.79 368.594C1024.36 368.157 1024.14 367.634 1024.14 367.024C1024.14 366.421 1024.36 365.904 1024.79 365.473C1025.23 365.042 1025.75 364.827 1026.36 364.827C1026.95 364.827 1027.47 365.042 1027.91 365.473C1028.35 365.904 1028.57 366.421 1028.57 367.024C1028.57 367.43 1028.47 367.803 1028.26 368.141C1028.06 368.474 1027.79 368.741 1027.46 368.945C1027.13 369.142 1026.76 369.24 1026.36 369.24ZM1038.15 369.259C1036.77 369.259 1035.54 369.022 1034.46 368.548C1033.39 368.067 1032.55 367.409 1031.92 366.572C1031.31 365.728 1030.99 364.756 1030.97 363.654H1035C1035.02 364.116 1035.17 364.522 1035.45 364.873C1035.73 365.218 1036.11 365.485 1036.58 365.676C1037.05 365.867 1037.57 365.962 1038.16 365.962C1038.77 365.962 1039.3 365.855 1039.77 365.639C1040.24 365.424 1040.61 365.125 1040.87 364.744C1041.14 364.362 1041.27 363.922 1041.27 363.423C1041.27 362.919 1041.13 362.472 1040.84 362.085C1040.57 361.691 1040.17 361.383 1039.64 361.161C1039.13 360.94 1038.51 360.829 1037.8 360.829H1036.03V357.893H1037.8C1038.4 357.893 1038.93 357.788 1039.39 357.579C1039.86 357.37 1040.22 357.08 1040.48 356.711C1040.74 356.335 1040.87 355.898 1040.87 355.4C1040.87 354.926 1040.76 354.51 1040.53 354.153C1040.31 353.79 1039.99 353.507 1039.59 353.304C1039.19 353.101 1038.72 352.999 1038.18 352.999C1037.64 352.999 1037.15 353.098 1036.7 353.295C1036.25 353.486 1035.89 353.759 1035.62 354.116C1035.35 354.473 1035.2 354.892 1035.18 355.372H1031.35C1031.37 354.283 1031.68 353.322 1032.28 352.491C1032.89 351.661 1033.7 351.011 1034.72 350.543C1035.75 350.069 1036.91 349.832 1038.2 349.832C1039.51 349.832 1040.65 350.069 1041.63 350.543C1042.61 351.017 1043.37 351.657 1043.91 352.464C1044.46 353.264 1044.73 354.163 1044.72 355.16C1044.73 356.219 1044.4 357.102 1043.73 357.81C1043.07 358.518 1042.22 358.967 1041.16 359.158V359.305C1042.55 359.484 1043.61 359.967 1044.33 360.755C1045.07 361.537 1045.43 362.515 1045.42 363.691C1045.43 364.768 1045.12 365.725 1044.49 366.562C1043.87 367.4 1043.01 368.058 1041.91 368.538C1040.82 369.018 1039.56 369.259 1038.15 369.259ZM1055.71 369.415C1054.12 369.409 1052.76 369.018 1051.61 368.243C1050.47 367.467 1049.6 366.344 1048.98 364.873C1048.37 363.402 1048.07 361.632 1048.07 359.564C1048.07 357.502 1048.38 355.745 1048.99 354.292C1049.6 352.839 1050.48 351.734 1051.62 350.977C1052.77 350.214 1054.13 349.832 1055.71 349.832C1057.29 349.832 1058.65 350.214 1059.79 350.977C1060.94 351.741 1061.82 352.848 1062.43 354.301C1063.05 355.748 1063.35 357.502 1063.35 359.564C1063.35 361.638 1063.04 363.411 1062.42 364.882C1061.81 366.353 1060.94 367.477 1059.8 368.252C1058.66 369.028 1057.3 369.415 1055.71 369.415ZM1055.71 366.101C1056.79 366.101 1057.66 365.556 1058.3 364.467C1058.95 363.377 1059.27 361.743 1059.27 359.564C1059.27 358.13 1059.12 356.936 1058.82 355.982C1058.53 355.027 1058.12 354.31 1057.58 353.83C1057.06 353.35 1056.43 353.11 1055.71 353.11C1054.63 353.11 1053.77 353.649 1053.13 354.726C1052.48 355.803 1052.15 357.416 1052.15 359.564C1052.15 361.017 1052.29 362.229 1052.58 363.202C1052.88 364.168 1053.29 364.894 1053.83 365.381C1054.36 365.861 1054.99 366.101 1055.71 366.101ZM1067.1 359.545C1067.1 357.256 1067.41 355.147 1068.02 353.221C1068.63 351.294 1069.57 349.509 1070.83 347.866H1074.59C1074.11 348.475 1073.66 349.22 1073.25 350.1C1072.84 350.974 1072.48 351.934 1072.17 352.981C1071.86 354.027 1071.62 355.111 1071.45 356.231C1071.28 357.345 1071.19 358.45 1071.19 359.545C1071.19 361.004 1071.34 362.478 1071.63 363.968C1071.94 365.451 1072.34 366.83 1072.85 368.104C1073.37 369.379 1073.95 370.422 1074.59 371.234H1070.83C1069.57 369.591 1068.63 367.806 1068.02 365.879C1067.41 363.953 1067.1 361.841 1067.1 359.545ZM1088.98 365.828H1098.1V368.61H1076.42V365.828H1085.55V361.85H1078.97V348.928H1095.61V351.658H1082.45V353.998H1095.06V356.65H1082.45V359.146H1095.79V361.85H1088.98V365.828ZM1107.42 361.42C1107.42 363.716 1107.11 365.827 1106.5 367.754C1105.89 369.68 1104.95 371.465 1103.69 373.109H1099.93C1100.41 372.499 1100.86 371.754 1101.27 370.874C1101.68 369.994 1102.04 369.034 1102.35 367.994C1102.66 366.947 1102.9 365.864 1103.07 364.744C1103.24 363.623 1103.33 362.515 1103.33 361.42C1103.33 359.961 1103.18 358.49 1102.88 357.006C1102.58 355.517 1102.18 354.138 1101.66 352.87C1101.15 351.596 1100.57 350.553 1099.93 349.74H1103.69C1104.95 351.384 1105.89 353.169 1106.5 355.095C1107.11 357.022 1107.42 359.13 1107.42 361.42Z" fill="#FFF8E2"/>
<rect x="1130" y="338" width="132" height="43" rx="21.5" fill="#FFF8E2"/>
<path d="M1153.03 358.782L1152.17 356.626C1156.5 356.362 1158.48 355.108 1158.86 353.722H1153.14V351.456H1159.08V349.674H1161.98V351.456H1167.94V353.722H1162.22C1162.6 355.108 1164.58 356.362 1168.91 356.626L1168.05 358.782C1164.34 358.518 1161.81 357.484 1160.55 355.878C1159.28 357.484 1156.75 358.518 1153.03 358.782ZM1160.51 367.758C1163.26 367.758 1164.6 367.362 1164.6 366.46C1164.6 365.536 1163.26 365.162 1160.51 365.162C1157.76 365.162 1156.42 365.536 1156.42 366.46C1156.42 367.362 1157.76 367.758 1160.51 367.758ZM1160.51 363.028C1164.93 363.028 1167.55 364.238 1167.55 366.46C1167.55 368.682 1164.93 369.892 1160.51 369.892C1156.09 369.892 1153.49 368.682 1153.49 366.46C1153.49 364.238 1156.09 363.028 1160.51 363.028ZM1161.98 359.794H1169.7V362.06H1151.4V359.794H1159.08V357.858H1161.98V359.794ZM1182.87 351.781C1183.69 351.781 1184.48 351.919 1185.24 352.195C1186.01 352.471 1186.69 352.911 1187.29 353.516C1187.9 354.12 1188.37 354.922 1188.72 355.922C1189.07 356.917 1189.25 358.138 1189.26 359.586C1189.26 360.945 1189.11 362.159 1188.8 363.227C1188.5 364.289 1188.06 365.193 1187.49 365.938C1186.93 366.682 1186.24 367.25 1185.44 367.641C1184.64 368.026 1183.74 368.219 1182.75 368.219C1181.68 368.219 1180.74 368.013 1179.92 367.602C1179.11 367.185 1178.45 366.62 1177.95 365.906C1177.45 365.187 1177.15 364.38 1177.05 363.484H1180.38C1180.51 364.068 1180.79 364.521 1181.21 364.844C1181.62 365.161 1182.14 365.32 1182.75 365.32C1183.79 365.32 1184.59 364.867 1185.13 363.961C1185.67 363.049 1185.94 361.802 1185.95 360.219H1185.84C1185.6 360.687 1185.28 361.091 1184.87 361.43C1184.46 361.763 1184 362.021 1183.47 362.203C1182.95 362.385 1182.4 362.477 1181.81 362.477C1180.86 362.477 1180.02 362.255 1179.28 361.812C1178.54 361.37 1177.96 360.76 1177.53 359.984C1177.11 359.208 1176.89 358.323 1176.89 357.328C1176.89 356.255 1177.13 355.299 1177.63 354.461C1178.13 353.622 1178.83 352.966 1179.73 352.492C1180.63 352.013 1181.68 351.776 1182.87 351.781ZM1182.89 354.437C1182.37 354.437 1181.9 354.562 1181.49 354.813C1181.08 355.062 1180.76 355.398 1180.52 355.82C1180.28 356.242 1180.17 356.714 1180.17 357.234C1180.17 357.76 1180.29 358.234 1180.52 358.656C1180.75 359.073 1181.07 359.406 1181.47 359.656C1181.88 359.901 1182.34 360.023 1182.86 360.023C1183.25 360.023 1183.61 359.951 1183.95 359.805C1184.28 359.659 1184.57 359.458 1184.81 359.203C1185.06 358.943 1185.26 358.643 1185.4 358.305C1185.54 357.966 1185.61 357.607 1185.61 357.227C1185.61 356.721 1185.49 356.258 1185.25 355.836C1185.02 355.414 1184.69 355.076 1184.28 354.82C1183.87 354.565 1183.41 354.437 1182.89 354.437ZM1198.56 352V368H1195.18V355.211H1195.09L1191.42 357.508V354.508L1195.38 352H1198.56ZM1218.85 349.63V359.772H1215.92V349.63H1218.85ZM1205.12 354.844C1205.12 356.296 1206.24 357.132 1207.74 357.132C1209.23 357.132 1210.31 356.296 1210.31 354.844C1210.31 353.414 1209.23 352.556 1207.74 352.556C1206.24 352.556 1205.12 353.414 1205.12 354.844ZM1213.13 354.844C1213.13 357.55 1210.82 359.486 1207.74 359.486C1204.63 359.486 1202.3 357.55 1202.3 354.844C1202.3 352.16 1204.63 350.224 1207.74 350.224C1210.82 350.224 1213.13 352.16 1213.13 354.844ZM1208.24 367.406H1219.35V369.65H1205.36V364.062H1215.96V362.83H1205.34V360.608H1218.85V366.13H1208.24V367.406ZM1222.98 351.148H1232.73C1232.73 356.648 1229.34 360.454 1223.31 362.192L1222.1 359.882C1226.61 358.65 1229.12 356.296 1229.58 353.458H1222.98V351.148ZM1228.02 362.676V367.23H1238.89V369.54H1225.11V362.676H1228.02ZM1238.18 355.284H1240.89V357.66H1238.18V364.128H1235.28V349.63H1238.18V355.284Z" fill="#765D3A"/>
</g>
<path d="M677.245 172.847H694.948V169.193H683.545C676.363 169.193 674.599 167.429 674.599 160.562V155.27C674.599 148.403 676.363 146.513 683.545 146.513H723.55C727.078 146.513 728.338 148.907 728.338 151.238C728.338 153.632 727.015 155.963 723.55 155.963H689.278C688.018 155.963 687.577 156.278 687.577 157.412V158.42C687.577 159.68 688.018 159.932 689.278 159.932H723.739C727.204 159.932 728.527 162.326 728.527 164.657C728.527 166.988 727.141 169.193 723.739 169.193H707.8V172.847H725.755C729.535 172.847 730.984 175.178 730.984 177.698C730.984 180.218 729.472 182.549 725.755 182.549H677.245C673.528 182.549 672.016 180.218 672.016 177.698C672.016 175.178 673.465 172.847 677.245 172.847ZM714.352 195.527H679.765C676.363 195.527 674.473 193.511 674.473 190.676C674.473 187.841 676.363 185.888 679.765 185.888H719.329C726.952 185.888 728.338 188.093 728.338 195.401V204.788H715.738V196.913C715.738 195.905 715.36 195.527 714.352 195.527ZM732.118 192.125C741.316 185.825 744.025 175.871 744.025 158.546V153.632C744.025 149.6 746.986 147.521 750.262 147.521C753.475 147.521 756.499 149.789 756.499 153.632V158.483C756.499 163.019 756.247 167.177 755.743 171.02C766.39 174.8 771.619 183.242 770.548 201.197H758.326C759.46 191.747 757.822 185.51 753.349 182.423C750.64 191.054 746.104 197.102 739.867 200.441C736.654 202.142 732.874 201.89 731.173 199.685C729.472 197.732 729.22 194.141 732.118 192.125ZM776.785 204.788V174.422H768.784C765.004 174.422 763.492 171.587 763.492 169.004C763.492 166.484 764.941 163.586 768.784 163.586H776.785V151.742C776.785 147.71 779.746 145.631 783.022 145.631C786.235 145.631 789.322 147.773 789.322 151.742V204.788H776.785ZM818.617 169.004H817.357V172.028H827.689C831.469 172.028 832.918 173.918 832.918 176.438C832.918 178.958 831.406 181.1 827.689 181.1H796.819C793.102 181.1 791.59 178.958 791.59 176.438C791.59 173.918 793.039 172.028 796.819 172.028H805.513V169.004H804.946C796.882 169.004 792.976 164.468 792.976 158.042C792.976 151.553 796.882 146.828 804.946 146.828H818.617C826.618 146.828 830.524 151.553 830.524 158.042C830.524 164.468 826.618 169.004 818.617 169.004ZM848.29 194.33C848.29 200.126 844.636 204.977 836.761 204.977H806.773C798.898 204.977 795.244 200.126 795.244 194.33C795.244 188.534 798.898 183.683 806.773 183.683H836.761C844.636 183.683 848.29 188.534 848.29 194.33ZM834.808 182.045V151.868C834.808 147.773 837.706 145.631 841.045 145.631C844.321 145.631 847.282 147.836 847.282 151.868V157.979H849.235C853.078 157.979 854.212 160.877 854.212 163.397C854.212 165.98 853.015 168.815 849.235 168.815H847.282V182.045H834.808ZM835.501 194.33C835.501 193.07 834.808 191.873 832.918 191.873H810.616C808.726 191.873 808.033 193.07 808.033 194.33C808.033 195.59 808.726 196.787 810.616 196.787H832.918C834.808 196.787 835.501 195.59 835.501 194.33ZM815.845 155.333H807.655C805.702 155.333 804.883 156.341 804.883 158.042C804.883 159.617 805.702 160.751 807.655 160.751H815.845C817.798 160.751 818.617 159.617 818.617 158.042C818.617 156.341 817.798 155.333 815.845 155.333ZM1115.72 170.012C1122.08 167.996 1125.55 163.019 1125.55 153.569V152.435C1125.55 148.403 1128.7 146.513 1132.04 146.576C1135.31 146.639 1138.09 148.655 1138.09 152.435V153.569C1138.09 155.711 1137.9 157.727 1137.58 159.617C1146.34 160.625 1152.13 166.547 1151.76 179.588H1139.66C1139.98 173.54 1138.21 169.949 1134.37 169.13C1130.71 175.619 1124.92 179.336 1119.12 180.092C1115.85 180.533 1113.26 178.58 1112.76 176.375C1111.94 173.54 1113.2 170.831 1115.72 170.012ZM1166.31 204.788H1126.56C1119.5 204.788 1117.61 202.331 1117.61 195.59V189.164C1117.61 184.88 1120.57 182.927 1124.1 182.927C1127.63 182.927 1130.4 184.943 1130.4 189.164V193.448C1130.4 194.834 1130.71 195.023 1132.1 195.023H1166.31C1170.15 195.023 1171.6 197.354 1171.6 199.874C1171.6 202.457 1170.09 204.788 1166.31 204.788ZM1157.43 190.172V164.09H1152.13C1149.05 164.09 1147.22 161.507 1147.22 158.861C1147.22 156.215 1148.8 153.632 1152.13 153.632H1157.43V151.742C1157.43 147.71 1160.39 145.631 1163.66 145.631C1166.88 145.631 1169.96 147.773 1169.96 151.742V190.172H1157.43ZM1214.76 185.636H1180.48C1178.09 185.636 1177.08 183.809 1177.08 181.982C1177.08 180.218 1178.15 178.328 1180.48 178.328H1220.99C1226.54 178.328 1228.55 179.966 1228.55 184.88V194.834H1191.07C1190.12 194.834 1189.68 195.401 1189.68 196.031V196.22C1189.68 196.85 1190.12 197.417 1191.07 197.417H1226.66C1229.12 197.417 1230.19 199.307 1230.19 201.197C1230.19 202.898 1229.18 204.788 1226.66 204.788H1185.21C1179.54 204.788 1176.39 200.819 1176.39 196.346V195.59C1176.39 191.117 1179.54 188.219 1185.21 188.219H1215.76V186.644C1215.76 185.888 1215.58 185.636 1214.76 185.636ZM1209.46 175.556H1183.07C1176.14 175.556 1174.37 173.225 1174.37 166.61V152.939C1174.37 148.718 1177.02 146.954 1180.48 146.954C1183.76 146.954 1186.03 148.655 1186.22 152.435H1197.62C1197.81 148.592 1200.14 146.954 1203.48 146.954C1206.94 146.954 1209.46 148.781 1209.46 152.939V175.556ZM1215.64 176.627V151.868C1215.64 147.773 1218.54 145.631 1221.88 145.631C1225.15 145.631 1228.11 147.836 1228.11 151.868V155.9H1230.07C1233.91 155.9 1235.04 158.735 1235.04 161.255C1235.04 163.838 1233.85 166.61 1230.07 166.61H1228.11V176.627H1215.64ZM1187.92 166.547H1197.62V160.814H1186.22V164.972C1186.22 166.358 1186.53 166.547 1187.92 166.547ZM1279.33 204.788V178.769H1275.87V204.788H1264.78V150.986C1264.78 147.458 1267.42 145.631 1270.32 145.631C1273.16 145.631 1275.87 147.521 1275.87 150.986V168.437H1279.33V150.986C1279.33 147.458 1282.1 145.631 1285 145.631C1287.84 145.631 1290.67 147.521 1290.67 150.986V204.788H1279.33ZM1258.04 202.268H1243.3C1235.11 202.268 1233.91 200.63 1233.91 192.755V157.286C1233.91 149.411 1235.11 147.836 1243.3 147.836H1256.71C1260.37 147.836 1261.5 150.293 1261.5 153.002C1261.5 155.774 1260.31 158.168 1256.71 158.168H1247.83C1246.13 158.168 1245.88 158.42 1245.88 160.121V189.983C1245.88 191.684 1246.13 191.936 1247.83 191.936H1258.04C1261.69 191.936 1262.83 194.393 1262.83 197.102C1262.83 199.874 1261.63 202.268 1258.04 202.268ZM1312.72 145.19C1316.75 145.19 1319.15 147.584 1319.21 151.553H1328.79C1331.87 151.553 1333.64 153.569 1333.64 156.215C1333.64 158.798 1331.94 160.877 1329.1 161.003C1329.73 162.641 1330.05 164.468 1330.05 166.61V169.256C1330.05 177.824 1325.76 182.297 1318.96 183.809V192.44H1329.35C1333.2 192.44 1334.65 194.897 1334.65 197.48C1334.65 200.126 1333.13 202.583 1329.35 202.583H1297.66C1293.88 202.583 1292.31 200.126 1292.31 197.48C1292.31 194.897 1293.82 192.44 1297.66 192.44H1306.48V183.809C1299.62 182.297 1295.33 177.824 1295.33 169.256V166.61C1295.33 164.468 1295.65 162.641 1296.28 161.003C1293.51 160.877 1291.74 158.798 1291.74 156.215C1291.74 153.569 1293.51 151.553 1296.59 151.553H1306.23C1306.3 147.584 1308.69 145.19 1312.72 145.19ZM1349.51 204.788H1336.91V151.868C1336.91 147.773 1339.87 145.631 1343.21 145.631C1346.55 145.631 1349.51 147.773 1349.51 151.868V204.788ZM1307.18 165.98V169.571C1307.18 173.54 1309.7 174.989 1312.72 174.989C1315.75 174.989 1318.27 173.54 1318.27 169.571V165.98C1318.27 162.074 1315.75 160.562 1312.72 160.562C1309.7 160.562 1307.18 162.074 1307.18 165.98Z" fill="#339047"/>
<path d="M1157.81 245.997V242.091H1148.99C1146.66 242.091 1145.08 241.146 1144.39 239.571C1139.22 245.178 1129.71 247.194 1119.32 245.934C1116.48 245.619 1114.28 243.54 1114.59 240.201C1114.91 237.24 1117.24 235.854 1120.26 236.169C1129.77 237.114 1136.52 234.531 1136.52 228.483V228.168C1136.52 227.16 1136.14 226.908 1135.07 226.908H1120.83C1117.17 226.908 1115.66 224.451 1115.66 221.994C1115.66 219.537 1117.11 217.206 1120.83 217.206H1139.73C1144.26 217.206 1146.72 218.466 1147.86 220.986H1157.87C1158.19 217.458 1160.9 215.631 1163.98 215.631C1167.2 215.631 1170.28 217.773 1170.28 221.742V245.997H1157.81ZM1168.33 274.788H1125.81C1120.07 274.788 1116.86 270.756 1116.86 266.22V265.464C1116.86 260.928 1120.07 258.03 1125.81 258.03H1157.49V256.392C1157.49 255.636 1157.31 255.384 1156.49 255.384H1121.02C1118.56 255.384 1117.55 253.557 1117.55 251.667C1117.55 249.903 1118.62 248.013 1121.02 248.013H1162.6C1168.2 248.013 1170.28 249.651 1170.28 254.628V264.708H1131.54C1130.59 264.708 1130.15 265.275 1130.15 265.905V266.094C1130.15 266.724 1130.59 267.291 1131.54 267.291H1168.33C1170.85 267.291 1171.92 269.244 1171.92 271.134C1171.92 272.898 1170.91 274.788 1168.33 274.788ZM1147.86 233.523C1148.17 233.523 1148.55 233.46 1148.99 233.46H1157.81V229.617H1148.55C1148.42 231.003 1148.17 232.326 1147.86 233.523ZM1215.83 274.788V221.742C1215.83 217.71 1218.79 215.631 1222.07 215.631C1225.28 215.631 1228.31 217.773 1228.31 221.742V237.681H1230.39C1234.23 237.681 1235.36 240.642 1235.36 243.162C1235.36 245.745 1234.16 248.643 1230.39 248.643H1228.31V274.788H1215.83ZM1197.31 250.47C1198.57 246.627 1199.14 241.461 1199.14 233.649V229.806C1199.14 228.735 1198.63 228.294 1197.62 228.294H1179.35C1175.7 228.294 1174 225.585 1174 222.939C1174 220.293 1175.64 217.584 1179.35 217.584H1201.85C1208.96 217.584 1211.17 220.293 1211.17 226.278V233.712C1211.17 243.162 1210.41 249.147 1208.71 253.809C1207.52 257.085 1203.74 258.471 1200.08 257.4C1197.18 256.518 1196.37 253.368 1197.31 250.47ZM1178.28 262.44H1180.99V243.036C1180.99 238.941 1183.64 237.366 1186.98 237.366C1190.25 237.366 1192.96 239.004 1192.96 243.036V262.44H1208.27C1212.12 262.44 1213.56 264.897 1213.56 267.48C1213.56 270.126 1212.05 272.583 1208.27 272.583H1178.28C1174.5 272.583 1172.93 270.126 1172.93 267.48C1172.93 264.897 1174.44 262.44 1178.28 262.44ZM1274.93 255.636H1240.65C1238.26 255.636 1237.25 253.809 1237.25 251.982C1237.25 250.218 1238.32 248.328 1240.65 248.328H1281.16C1286.71 248.328 1288.72 249.966 1288.72 254.88V264.834H1251.24C1250.29 264.834 1249.85 265.401 1249.85 266.031V266.22C1249.85 266.85 1250.29 267.417 1251.24 267.417H1286.83C1289.29 267.417 1290.36 269.307 1290.36 271.197C1290.36 272.898 1289.35 274.788 1286.83 274.788H1245.38C1239.71 274.788 1236.56 270.819 1236.56 266.346V265.59C1236.56 261.117 1239.71 258.219 1245.38 258.219H1275.93V256.644C1275.93 255.888 1275.74 255.636 1274.93 255.636ZM1269.63 245.556H1243.24C1236.31 245.556 1234.54 243.225 1234.54 236.61V222.939C1234.54 218.718 1237.19 216.954 1240.65 216.954C1243.93 216.954 1246.2 218.655 1246.39 222.435H1257.79C1257.98 218.592 1260.31 216.954 1263.65 216.954C1267.11 216.954 1269.63 218.781 1269.63 222.939V245.556ZM1275.81 246.627V221.868C1275.81 217.773 1278.71 215.631 1282.05 215.631C1285.32 215.631 1288.28 217.836 1288.28 221.868V225.9H1290.24C1294.08 225.9 1295.21 228.735 1295.21 231.255C1295.21 233.838 1294.01 236.61 1290.24 236.61H1288.28V246.627H1275.81ZM1248.09 236.547H1257.79V230.814H1246.39V234.972C1246.39 236.358 1246.7 236.547 1248.09 236.547ZM1297.86 263.448H1303.53V259.542C1303.53 255.069 1306.11 253.116 1309.95 253.116C1313.73 253.116 1316.25 255.132 1316.25 259.542V263.448H1327.85V259.542C1327.85 255.069 1330.43 253.116 1334.27 253.116C1338.05 253.116 1340.57 255.132 1340.57 259.542V263.448H1346.24C1350.09 263.448 1351.53 265.968 1351.53 268.488C1351.53 271.071 1350.02 273.528 1346.24 273.528H1297.86C1294.08 273.528 1292.57 271.071 1292.57 268.488C1292.57 265.968 1294.02 263.448 1297.86 263.448ZM1299.31 241.335H1303.65V236.988C1303.65 232.515 1306.24 230.562 1310.08 230.562C1313.86 230.562 1316.38 232.578 1316.38 236.988V241.335H1327.72V236.988C1327.72 232.515 1330.3 230.562 1334.15 230.562C1337.93 230.562 1340.45 232.578 1340.45 236.988V241.335H1344.79C1348.64 241.335 1350.09 243.855 1350.09 246.375C1350.09 248.958 1348.57 251.415 1344.79 251.415H1299.31C1295.53 251.415 1294.02 248.958 1294.02 246.375C1294.02 243.855 1295.46 241.335 1299.31 241.335ZM1300.06 217.71H1344.04C1347.88 217.71 1349.33 220.482 1349.33 223.002C1349.33 225.585 1347.82 228.294 1344.04 228.294H1300.06C1296.28 228.294 1294.77 225.585 1294.77 223.002C1294.77 220.482 1296.22 217.71 1300.06 217.71Z" fill="#836437"/>
<g clip-path="url(#clip1_342_17142)">
<path d="M976.196 289.924C976.056 289.95 928.125 279.655 921.386 278.069L925.753 298.739L978.358 318.664L976.196 289.924Z" fill="black"/>
<path d="M978.358 320.294C978.165 320.294 977.964 320.259 977.78 320.189L925.176 300.272C924.659 300.071 924.274 299.624 924.16 299.081L919.793 278.411C919.679 277.868 919.845 277.298 920.248 276.904C920.642 276.518 921.219 276.352 921.762 276.483C928.659 278.095 974.883 288.014 976.441 288.312C976.721 288.356 976.983 288.461 977.211 288.636C977.57 288.917 977.797 289.346 977.832 289.802L979.994 318.542C980.038 319.094 979.793 319.637 979.347 319.97C979.058 320.18 978.717 320.294 978.375 320.294H978.358ZM927.162 297.53L976.537 316.228L974.655 291.221C966.454 289.618 932.948 282.284 923.495 280.207L927.154 297.53H927.162Z" fill="black"/>
<path d="M1040.31 274.669L1082.88 333.805C1082.88 333.805 1066.99 365.831 1013.96 370.361H1001.18C953.368 369.572 963.478 351.601 963.478 351.601L974.83 274.678H1040.31V274.669Z" fill="black"/>
<path d="M1001.19 371.991C979.557 371.632 966.489 367.759 962.314 360.469C959.854 356.175 961.377 352.215 961.902 351.093L973.22 274.424C973.334 273.627 974.025 273.031 974.83 273.031H1040.31C1040.84 273.031 1041.33 273.285 1041.63 273.705L1084.21 332.841C1084.56 333.332 1084.61 333.98 1084.35 334.524C1083.68 335.864 1067.44 367.426 1014.1 371.982H1001.19V371.991ZM976.24 276.299L965.088 351.829C965.062 352.031 964.992 352.215 964.896 352.39C964.835 352.504 963.224 355.553 965.167 358.891C967.198 362.37 974.577 368.276 1001.21 368.722H1013.96C1040.7 366.436 1057.64 356.859 1067.13 349.227C1075.44 342.541 1079.64 336.145 1080.95 333.902L1039.47 276.29H976.231L976.24 276.299Z" fill="black"/>
<path d="M1002.41 157.151C1002.41 157.151 959.338 144.963 931.346 168.069C903.355 191.175 908.265 231.2 908.265 231.2C908.265 231.2 912.992 275.414 963.697 284.509C1014.4 293.604 1056.75 282.327 1056.75 282.327C1056.75 282.327 1103.28 269.587 1107.82 230.657C1112.36 191.718 1094.37 173.887 1094.37 173.887C1094.37 173.887 1071.47 147.688 1033.12 154.601C1033.12 154.601 1018.58 160.06 1002.4 157.151H1002.41Z" fill="#F37448"/>
<path d="M1004.34 289.661C991.881 289.661 977.964 288.733 963.408 286.121C936.624 281.311 922.611 266.713 915.574 255.305C907.95 242.941 906.69 231.848 906.637 231.375C906.593 230.99 901.955 190.211 930.305 166.807C958.296 143.692 1000.06 154.803 1002.77 155.556C1018.25 158.316 1032.41 153.12 1032.55 153.068C1032.63 153.033 1032.73 153.006 1032.83 152.989C1071.62 145.997 1095.36 172.537 1095.59 172.809C1096.27 173.475 1114.02 191.569 1109.43 230.841C1107.51 247.252 1097.84 261.64 1081.47 272.452C1069.19 280.549 1057.65 283.764 1057.17 283.896C1056.85 283.975 1035.06 289.653 1004.32 289.653L1004.34 289.661ZM976.257 155.574C963.601 155.574 946.069 158.027 932.388 169.33C905.438 191.578 909.841 230.613 909.885 231.007C910.077 232.786 915.127 274.144 963.986 282.906C1013.72 291.826 1055.91 280.864 1056.34 280.75C1056.78 280.628 1101.85 267.835 1106.21 230.464C1110.61 192.752 1093.4 175.219 1093.24 175.052C1092.93 174.71 1070.43 149.615 1033.56 156.187C1031.9 156.792 1017.89 161.593 1002.13 158.763C1002.08 158.754 1002.03 158.737 1001.97 158.728C1001.87 158.702 991.181 155.723 977.281 155.583C976.949 155.583 976.607 155.583 976.266 155.583L976.257 155.574Z" fill="black"/>
<path d="M975.408 217.154C985.932 217.154 994.463 208.339 994.463 197.466C994.463 186.592 985.932 177.777 975.408 177.777C964.884 177.777 956.353 186.592 956.353 197.466C956.353 208.339 964.884 217.154 975.408 217.154Z" fill="white"/>
<path d="M975.408 218.784C964.003 218.784 954.725 209.225 954.725 197.466C954.725 185.707 964.003 176.147 975.408 176.147C986.813 176.147 996.091 185.707 996.091 197.466C996.091 209.225 986.813 218.784 975.408 218.784ZM975.408 179.416C965.797 179.416 957.99 187.512 957.99 197.466C957.99 207.42 965.806 215.516 975.408 215.516C985.01 215.516 992.826 207.42 992.826 197.466C992.826 187.512 985.01 179.416 975.408 179.416Z" fill="black"/>
<path d="M975.224 206.666C980.165 206.666 984.17 202.484 984.17 197.326C984.17 192.167 980.165 187.985 975.224 187.985C970.284 187.985 966.279 192.167 966.279 197.326C966.279 202.484 970.284 206.666 975.224 206.666Z" fill="black"/>
<path d="M1039.16 217.154C1049.69 217.154 1058.22 208.339 1058.22 197.466C1058.22 186.592 1049.69 177.777 1039.16 177.777C1028.64 177.777 1020.11 186.592 1020.11 197.466C1020.11 208.339 1028.64 217.154 1039.16 217.154Z" fill="white"/>
<path d="M1039.16 218.784C1027.76 218.784 1018.48 209.225 1018.48 197.466C1018.48 185.707 1027.76 176.147 1039.16 176.147C1050.57 176.147 1059.85 185.707 1059.85 197.466C1059.85 209.225 1050.57 218.784 1039.16 218.784ZM1039.16 179.416C1029.55 179.416 1021.75 187.512 1021.75 197.466C1021.75 207.42 1029.56 215.516 1039.16 215.516C1048.77 215.516 1056.58 207.42 1056.58 197.466C1056.58 187.512 1048.77 179.416 1039.16 179.416Z" fill="black"/>
<path d="M1038.98 206.666C1043.92 206.666 1047.92 202.484 1047.92 197.326C1047.92 192.167 1043.92 187.985 1038.98 187.985C1034.04 187.985 1030.03 192.167 1030.03 197.326C1030.03 202.484 1034.04 206.666 1038.98 206.666Z" fill="black"/>
<path d="M1008.1 208.05C1008.1 208.05 1005.02 208.05 1001.04 214.123C997.062 220.195 993.08 226.766 993.08 226.766C993.08 226.766 991.688 228.659 992.38 230.35C993.071 232.041 998.542 233.233 1005.4 233.338H1011.08C1017.94 233.242 1023.41 232.041 1024.1 230.35C1024.8 228.659 1023.4 226.766 1023.4 226.766C1023.4 226.766 1019.43 220.195 1015.44 214.123C1011.47 208.05 1008.38 208.05 1008.38 208.05" fill="black"/>
<path d="M1005.41 234.968C1001.5 234.915 992.292 234.407 990.874 230.972C989.859 228.501 991.566 226.065 991.767 225.803C991.767 225.803 995.741 219.231 999.671 213.229C1003.92 206.745 1007.43 206.421 1008.09 206.421C1008.14 206.421 1008.19 206.421 1008.24 206.421C1008.28 206.421 1008.34 206.421 1008.39 206.421C1009.05 206.421 1012.56 206.745 1016.81 213.229C1020.76 219.257 1024.76 225.855 1024.8 225.916C1024.91 226.065 1026.62 228.501 1025.61 230.972C1024.19 234.407 1014.99 234.915 1011.09 234.968H1005.4H1005.41ZM1008.16 209.68C1008 209.706 1005.61 210.118 1002.39 215.016C998.48 220.992 994.507 227.546 994.472 227.608C994.122 228.107 993.631 229.106 993.885 229.728C994.314 230.245 997.877 231.594 1005.43 231.708H1011.08C1018.6 231.603 1022.17 230.254 1022.64 229.658C1022.86 229.088 1022.32 228.046 1022.1 227.739C1021.97 227.555 1018.01 221.001 1014.09 215.025C1010.78 209.978 1008.34 209.689 1008.32 209.689C1008.3 209.689 1008.28 209.689 1008.27 209.689C1008.23 209.689 1008.2 209.689 1008.17 209.689L1008.16 209.68Z" fill="black"/>
<path d="M951.793 234.81C951.793 234.81 997.211 260.545 1066.17 234.81C1066.17 234.81 1059.79 268.869 1010.66 271.515C961.544 274.161 951.793 234.81 951.793 234.81Z" fill="#77474E"/>
<path d="M982.953 245.255L983.312 253.079L994.472 254.691L996.213 246.245" fill="white"/>
<path d="M994.647 256.155C994.507 256.172 994.358 256.164 994.218 256.146L983.058 254.534C982.297 254.42 981.719 253.842 981.684 253.141L981.325 245.307C981.29 244.492 981.99 243.809 982.883 243.774C983.785 243.739 984.546 244.37 984.581 245.185L984.879 251.809L993.159 253L994.612 245.964C994.778 245.158 995.618 244.633 996.511 244.781C997.395 244.93 997.982 245.702 997.815 246.508L996.073 254.954C995.942 255.612 995.347 256.085 994.647 256.155Z" fill="black"/>
<path d="M1022.8 246.367L1024.84 254.499L1037 252.028L1036.66 243.485" fill="white"/>
<path d="M1024.84 255.971C1024.1 255.971 1023.43 255.506 1023.26 254.823L1021.21 246.692C1021.01 245.894 1021.56 245.106 1022.44 244.922C1023.32 244.738 1024.19 245.237 1024.39 246.034L1026.08 252.729L1035.33 250.854L1035.04 243.537C1035.01 242.722 1035.71 242.039 1036.61 242.013C1037.51 241.942 1038.26 242.617 1038.3 243.432L1038.64 251.975C1038.66 252.685 1038.13 253.316 1037.37 253.465L1025.21 255.936C1025.09 255.962 1024.98 255.971 1024.85 255.971H1024.84Z" fill="black"/>
<path d="M1004.57 271.313L1005.84 262.691L1017.05 261.789L1019.14 272.128" fill="white"/>
<path d="M1019.5 271.979C1019.5 271.979 1019.45 271.988 1019.43 271.997C1018.54 272.146 1017.69 271.611 1017.53 270.814L1015.71 263.384L1007.28 264.058L1006.18 271.506C1006.07 272.312 1005.25 272.882 1004.35 272.777C1003.46 272.671 1002.84 271.927 1002.95 271.121L1004.22 262.499C1004.32 261.815 1004.95 261.289 1005.69 261.219L1016.9 260.317C1017.74 260.247 1018.49 260.772 1018.65 261.517L1020.74 270.271C1020.9 271.05 1020.34 271.795 1019.5 271.971V271.979Z" fill="black"/>
<path d="M1006.03 273.118C960.169 273.118 950.305 235.52 950.209 235.134C950.06 234.556 950.323 233.951 950.856 233.61C951.39 233.268 952.108 233.25 952.66 233.557C953.106 233.811 998.244 258.564 1065.55 233.443C1066.1 233.242 1066.73 233.321 1067.19 233.654C1067.65 233.987 1067.88 234.521 1067.78 235.056C1067.71 235.406 1060.59 270.297 1010.76 272.987C1009.14 273.075 1007.57 273.118 1006.03 273.118H1006.03ZM954.471 237.798C958.007 247.068 971.285 272.163 1010.57 270.043C1050.24 267.905 1061.19 245.211 1063.83 237.255C1029.19 249.566 1000.76 248.803 982.839 245.912C969.018 243.686 959.32 239.98 954.471 237.798Z" fill="black"/>
<path d="M914.739 251.372L900.84 255.396L919.493 319.965L933.392 315.941L914.739 251.372Z" fill="#FEE900" stroke="black" stroke-width="3.4" stroke-linecap="round" stroke-linejoin="round"/>
<path d="M893.648 206.456C891.924 210.057 889.123 217.838 890.567 228.151L887.635 229.728L880.65 223.866C880.65 223.866 874.339 219.354 876.816 225.899C879.294 232.444 886.506 241.688 896.195 242.819L895.749 245.298C895.749 245.298 887.635 241.242 893.272 251.616C898.909 261.99 909.491 259.055 909.491 259.055C909.491 259.055 924.808 255.673 918.725 237.176L913.543 241.014L912.195 238.078C912.195 238.078 923.46 229.956 919.854 211.012C919.854 211.012 917.377 209.207 916.02 213.947C914.664 218.688 912.642 222.289 912.642 222.289L909.937 222.736C909.937 222.736 902.567 210.162 897.219 205.685C896.064 204.721 894.296 205.089 893.639 206.456H893.648Z" fill="#FEE900" stroke="black" stroke-width="3" stroke-linecap="round" stroke-linejoin="round"/>
<path d="M897.893 198.263L903.976 199.612C903.976 199.612 904.125 193.645 911.863 192.059C920.09 190.368 922.34 180.327 919.521 174.018C915.355 164.669 923.46 165.221 926.165 164.546L925.491 156.765C925.491 156.765 910.821 158.185 910.453 169.024C910.401 170.531 910.707 172.029 911.197 173.449C912.169 176.261 913.937 183.078 909.149 185.295C903.066 188.116 897.543 191.043 897.884 198.263H897.893Z" fill="#EE87B3" stroke="black" stroke-width="3" stroke-linecap="round" stroke-linejoin="round"/>
<path d="M886.847 159.131L882.453 154.058C882.453 154.058 867.617 164.266 876.921 173.291C877.779 174.123 878.786 174.798 879.836 175.367C882.576 176.857 886.952 180.783 883.355 185.067C877.779 191.7 887.749 197.588 887.749 197.588L893.491 193.645C893.491 193.645 888.755 190.491 891.013 186.767C893.272 183.043 895.294 175.148 884.37 169.4C884.37 169.4 876.037 166.807 886.847 159.14V159.131Z" fill="#56C1EF" stroke="black" stroke-width="3" stroke-linecap="round" stroke-linejoin="round"/>
<path d="M864.099 176.726L859.591 172.099C859.591 172.099 847.284 187.065 860.265 193.207C861.438 193.759 862.733 194.031 864.029 194.092C866.541 194.206 871.311 194.96 871.276 199.087C871.267 200.585 871.477 202.101 872.177 203.433C873.578 206.105 876.93 208.988 884.93 206.386L883.687 200.068C883.687 200.068 877.832 203.003 877.49 197.247C877.49 197.247 878.051 187.889 865.438 186.758C865.438 186.758 856.877 186.758 864.09 176.726H864.099Z" fill="#FDE000" stroke="black" stroke-width="3" stroke-linecap="round" stroke-linejoin="round"/>
<path d="M1046.99 158.176C1046.99 158.176 1050.24 142.842 1060.68 130.505C1060.68 130.505 1059.56 126.983 1049.47 129.156C1039.4 131.329 1036.23 132.783 1035.74 133.476C1035.25 134.168 1037.33 140.871 1037.33 140.871L1031.13 142.755C1031.13 142.755 1025.38 120.762 1005.63 110.878C986.533 121.962 982.148 144.262 982.148 144.262L975.846 142.763C975.846 142.763 977.491 135.947 976.966 135.281C976.441 134.623 973.185 133.37 962.997 131.82C952.808 130.269 951.898 133.852 951.898 133.852C963.075 145.524 967.259 160.63 967.259 160.63C967.277 160.63 967.285 160.63 967.303 160.63C967.285 160.717 967.268 160.814 967.268 160.901C967.373 164.389 985.307 166.658 1007.32 165.983C1007.32 165.983 1007.33 165.983 1007.34 165.983C1029.36 165.309 1047.13 161.926 1047.01 158.439C1047.01 158.343 1046.99 158.255 1046.96 158.159C1046.96 158.159 1046.97 158.159 1046.98 158.159L1046.99 158.176Z" fill="#FEE900" stroke="black" stroke-width="3" stroke-linecap="round" stroke-linejoin="round"/>
<path d="M902.76 292.106C902.76 292.106 898.086 279.909 907.425 276.912C915.915 274.187 915.994 279.664 915.994 279.664C915.994 279.664 916.983 284.378 907.994 286.183C907.994 286.183 917.596 282.38 918.252 287.436C918.252 287.436 918.856 291.948 910.76 294.077C910.76 294.077 919.171 291.23 919.679 295.611C920.187 299.992 911.6 301.49 911.6 301.49C911.6 301.49 906.471 304.207 902.768 292.106H902.76Z" fill="#F37448"/>
<path d="M913.552 302.34C912.843 302.533 912.274 302.647 911.968 302.708C911.434 302.919 910.051 303.33 908.3 302.603C905.534 301.455 903.259 298.056 901.561 292.518C901.316 291.869 899.014 285.394 901.386 280.444C902.48 278.148 904.388 276.553 907.04 275.703C910.672 274.538 913.438 274.617 915.268 275.931C916.756 277 917.211 278.647 917.254 279.532C917.316 279.997 917.412 281.434 916.353 283.037C916.213 283.256 916.055 283.466 915.88 283.668C916.502 283.782 917.088 283.975 917.596 284.273C918.672 284.903 919.329 285.937 919.504 287.252C919.521 287.401 919.793 289.749 917.473 292.027C918.121 292.15 918.725 292.36 919.241 292.684C920.213 293.298 920.791 294.253 920.931 295.444C921.403 299.598 916.379 301.552 913.552 302.323V302.34ZM911.285 300.264C911.285 300.264 911.346 300.246 911.373 300.246C913.289 299.904 918.707 298.353 918.41 295.76C918.357 295.33 918.2 295.059 917.885 294.849C916.764 294.13 914.226 294.454 912.309 294.945C911.915 295.076 911.504 295.19 911.075 295.304C910.418 295.479 909.736 295.094 909.543 294.445C909.351 293.788 909.701 293.096 910.348 292.877C910.497 292.824 910.944 292.676 911.583 292.518C917.193 290.678 917.001 287.716 916.992 287.585C916.904 286.91 916.58 286.638 916.309 286.481C915.373 285.929 913.648 286.016 911.933 286.358C910.856 286.796 909.622 287.155 908.23 287.436C907.591 287.567 906.952 287.182 906.769 286.551C906.585 285.92 906.909 285.254 907.513 285.009C907.836 284.886 909.342 284.308 911.197 283.913C915.049 282.266 914.751 280.014 914.725 279.9C914.716 279.839 914.707 279.743 914.707 279.681C914.707 279.655 914.655 278.612 913.745 277.981C912.957 277.429 911.303 277.009 907.793 278.13C905.797 278.77 904.449 279.892 903.653 281.548C901.674 285.675 903.906 291.598 903.924 291.659C903.933 291.685 903.941 291.712 903.95 291.747C905.858 297.959 908.038 299.729 909.176 300.237C910.235 300.71 910.979 300.377 911.014 300.36C911.084 300.325 911.18 300.29 911.267 300.264H911.285Z" fill="black"/>
<path d="M1065.84 101.616V126.878" stroke="#EA5641" stroke-width="3" stroke-linecap="round" stroke-linejoin="round"/>
<path d="M1053.68 114.47L1077.79 114.917" stroke="#EA5641" stroke-width="3" stroke-linecap="round" stroke-linejoin="round"/>
<path d="M1058.18 106.576L1072.61 121.909" stroke="#EA5641" stroke-width="3" stroke-linecap="round" stroke-linejoin="round"/>
<path d="M1073.05 107.25L1058.86 121.463" stroke="#EA5641" stroke-width="3" stroke-linecap="round" stroke-linejoin="round"/>
<path d="M928.047 81.3143V101.143" stroke="#9D66A7" stroke-width="3" stroke-miterlimit="10" stroke-linecap="round"/>
<path d="M918.497 91.4083L937.421 91.7588" stroke="#9D66A7" stroke-width="3" stroke-miterlimit="10" stroke-linecap="round"/>
<path d="M922.033 85.2135L933.351 97.2527" stroke="#9D66A7" stroke-width="3" stroke-miterlimit="10" stroke-linecap="round"/>
<path d="M933.71 85.7393L922.567 96.8935" stroke="#9D66A7" stroke-width="3" stroke-miterlimit="10" stroke-linecap="round"/>
<path d="M896.773 109.572V125.502" stroke="#EE87B3" stroke-width="2.41" stroke-linecap="round" stroke-linejoin="round"/>
<path d="M889.097 117.677L904.3 117.967" stroke="#EE87B3" stroke-width="2.41" stroke-linecap="round" stroke-linejoin="round"/>
<path d="M891.941 112.7L901.035 122.374" stroke="#EE87B3" stroke-width="2.41" stroke-linecap="round" stroke-linejoin="round"/>
<path d="M901.315 113.13L892.361 122.093" stroke="#EE87B3" stroke-width="2.41" stroke-linecap="round" stroke-linejoin="round"/>
<path d="M1115.86 116.503L1111.8 126.422L1122.17 130.479L1126 120.332L1115.86 116.503Z" fill="#5BC2EF"/>
<path d="M1091.3 141.537L1088.83 148.529L1096.49 151.236L1098.74 144.463L1091.3 141.537Z" fill="#35B28D"/>
</g>
<path d="M673.24 81V76.7898L683.077 67.6811C683.914 66.8714 684.616 66.1428 685.183 65.495C685.758 64.8473 686.195 64.2131 686.491 63.5923C686.788 62.9626 686.937 62.2834 686.937 61.5547C686.937 60.745 686.752 60.0478 686.384 59.4631C686.015 58.8693 685.511 58.415 684.872 58.1001C684.233 57.7763 683.509 57.6143 682.7 57.6143C681.854 57.6143 681.116 57.7853 680.487 58.1271C679.857 58.469 679.371 58.9593 679.029 59.598C678.687 60.2367 678.516 60.9969 678.516 61.8785H672.97C672.97 60.0703 673.379 58.5005 674.198 57.169C675.017 55.8376 676.164 54.8075 677.639 54.0788C679.115 53.3501 680.815 52.9858 682.74 52.9858C684.719 52.9858 686.442 53.3366 687.908 54.0384C689.384 54.7311 690.531 55.6937 691.349 56.9261C692.168 58.1586 692.577 59.571 692.577 61.1634C692.577 62.2069 692.371 63.237 691.957 64.2536C691.552 65.2701 690.828 66.3991 689.784 67.6406C688.741 68.8731 687.27 70.353 685.371 72.0803L681.337 76.0341V76.223H692.942V81H673.24ZM706.112 81.6072C703.791 81.5982 701.793 81.027 700.12 79.8935C698.456 78.7599 697.174 77.1181 696.274 74.968C695.384 72.8179 694.943 70.2315 694.952 67.2088C694.952 64.1951 695.397 61.6267 696.288 59.5035C697.187 57.3804 698.469 55.7656 700.134 54.6591C701.807 53.5436 703.8 52.9858 706.112 52.9858C708.424 52.9858 710.412 53.5436 712.076 54.6591C713.749 55.7746 715.036 57.3939 715.935 59.517C716.835 61.6312 717.28 64.1951 717.271 67.2088C717.271 70.2405 716.822 72.8314 715.922 74.9815C715.031 77.1316 713.754 78.7734 712.09 79.907C710.425 81.0405 708.433 81.6072 706.112 81.6072ZM706.112 76.7628C707.695 76.7628 708.959 75.9666 709.903 74.3743C710.848 72.782 711.316 70.3935 711.307 67.2088C711.307 65.1127 711.091 63.3674 710.659 61.973C710.236 60.5786 709.634 59.5305 708.851 58.8288C708.077 58.1271 707.164 57.7763 706.112 57.7763C704.537 57.7763 703.278 58.5634 702.333 60.1378C701.389 61.7121 700.912 64.0691 700.903 67.2088C700.903 69.3319 701.114 71.1042 701.537 72.5256C701.969 73.938 702.576 74.9995 703.359 75.7102C704.141 76.4119 705.059 76.7628 706.112 76.7628ZM719.538 81V76.7898L729.375 67.6811C730.212 66.8714 730.913 66.1428 731.48 65.495C732.056 64.8473 732.492 64.2131 732.789 63.5923C733.086 62.9626 733.234 62.2834 733.234 61.5547C733.234 60.745 733.05 60.0478 732.681 59.4631C732.312 58.8693 731.809 58.415 731.17 58.1001C730.531 57.7763 729.807 57.6143 728.997 57.6143C728.152 57.6143 727.414 57.7853 726.784 58.1271C726.154 58.469 725.669 58.9593 725.327 59.598C724.985 60.2367 724.814 60.9969 724.814 61.8785H719.268C719.268 60.0703 719.677 58.5005 720.496 57.169C721.314 55.8376 722.461 54.8075 723.937 54.0788C725.412 53.3501 727.113 52.9858 729.038 52.9858C731.017 52.9858 732.74 53.3366 734.206 54.0384C735.681 54.7311 736.828 55.6937 737.647 56.9261C738.466 58.1586 738.875 59.571 738.875 61.1634C738.875 62.2069 738.668 63.237 738.254 64.2536C737.85 65.2701 737.125 66.3991 736.082 67.6406C735.038 68.8731 733.567 70.353 731.669 72.0803L727.634 76.0341V76.223H739.239V81H719.538ZM740.561 76.142V71.5405L752.099 53.3636H756.066V59.733H753.718L746.445 71.2436V71.4595H762.84V76.142H740.561ZM753.826 81V74.7386L753.934 72.701V53.3636H759.413V81H753.826ZM781.23 73.02C783.586 73.02 785.296 71.424 785.296 68.726C785.296 66.104 783.586 64.47 781.23 64.47C778.874 64.47 777.126 66.104 777.126 68.764C777.126 71.424 778.874 73.02 781.23 73.02ZM781.23 60.404C786.284 60.404 790.046 63.862 790.046 68.726C790.046 73.666 786.284 77.124 781.23 77.124C776.138 77.124 772.338 73.666 772.338 68.726C772.338 63.862 776.138 60.404 781.23 60.404ZM783.7 49.878V54.438H791.3V58.428H770.932V54.438H778.684V49.878H783.7ZM803.612 62.95V67.092H798.596V84.268H793.58V49.27H798.596V62.95H803.612ZM817.023 65.61V60.632H810.145V65.61H817.023ZM821.963 51.778V69.562H805.205V51.778H810.145V56.756H817.023V51.778H821.963ZM814.173 72.488V79.67H832.983V83.66H809.157V72.488H814.173ZM831.729 59.15H836.365V63.254H831.729V75.034H826.713V49.27H831.729V59.15ZM839.174 52.88H855.97C855.97 63.596 852.36 72.336 839.934 78.34L837.312 74.388C846.242 70.094 850.118 64.622 850.84 56.87H839.174V52.88ZM861.328 49.232H866.382V84.23H861.328V49.232Z" fill="#967349"/>
<path d="M1168 12L1174.66 21.4098L1183.53 14.0439L1187.53 24.8577L1198 20.039L1199.06 31.5172L1210.43 29.5742L1208.48 40.9368L1219.96 42L1215.14 52.4729L1225.95 56.4709L1218.59 65.3404L1228 72L1218.59 78.6608L1225.95 87.5291L1215.14 91.5271L1219.96 102L1208.48 103.063L1210.43 114.427L1199.06 112.483L1198 123.962L1187.53 119.144L1183.53 129.956L1174.66 122.591L1168 132L1161.34 122.591L1152.47 129.956L1148.47 119.144L1138 123.962L1136.94 112.483L1125.57 114.427L1127.52 103.063L1116.04 102L1120.86 91.5271L1110.04 87.5291L1117.41 78.6608L1108 72L1117.41 65.3404L1110.04 56.4709L1120.86 52.4729L1116.04 42L1127.52 40.9368L1125.57 29.5742L1136.94 31.5172L1138 20.039L1148.47 24.8577L1152.47 14.0439L1161.34 21.4098L1168 12Z" fill="#DC813B"/>
<path d="M1161.83 51.458L1161.12 49.694C1164.67 49.478 1166.29 48.452 1166.6 47.318H1161.92V45.464H1166.78V44.006H1169.15V45.464H1174.03V47.318H1169.35C1169.66 48.452 1171.28 49.478 1174.82 49.694L1174.12 51.458C1171.08 51.242 1169.01 50.396 1167.98 49.082C1166.94 50.396 1164.87 51.242 1161.83 51.458ZM1167.95 58.802C1170.2 58.802 1171.29 58.478 1171.29 57.74C1171.29 56.984 1170.2 56.678 1167.95 56.678C1165.7 56.678 1164.6 56.984 1164.6 57.74C1164.6 58.478 1165.7 58.802 1167.95 58.802ZM1167.95 54.932C1171.56 54.932 1173.71 55.922 1173.71 57.74C1173.71 59.558 1171.56 60.548 1167.95 60.548C1164.33 60.548 1162.2 59.558 1162.2 57.74C1162.2 55.922 1164.33 54.932 1167.95 54.932ZM1169.15 52.286H1175.47V54.14H1160.49V52.286H1166.78V50.702H1169.15V52.286ZM1190.3 70.918V67.048H1187.15V70.918H1190.3ZM1195.61 68.254H1192.62V69.676H1195.61V68.254ZM1192.62 71.566V72.79H1184.81V65.158H1192.62V66.364H1195.61V63.97H1197.99V73.69H1195.61V71.566H1192.62ZM1192.37 78.73C1194.55 78.73 1195.68 78.28 1195.68 77.326C1195.68 76.372 1194.55 75.922 1192.37 75.922C1190.21 75.922 1189.08 76.372 1189.08 77.326C1189.08 78.28 1190.21 78.73 1192.37 78.73ZM1192.37 74.104C1195.9 74.104 1198.06 75.292 1198.06 77.326C1198.06 79.36 1195.9 80.548 1192.37 80.548C1188.86 80.548 1186.7 79.36 1186.7 77.326C1186.7 75.292 1188.86 74.104 1192.37 74.104ZM1166.67 89.856L1165.77 91.764C1162.87 91.332 1160.8 89.982 1159.74 88.2C1158.68 89.982 1156.59 91.332 1153.69 91.764L1152.79 89.856C1156.57 89.334 1158.46 87.192 1158.46 85.248V84.456H1161V85.248C1161 87.174 1162.91 89.334 1166.67 89.856ZM1167.21 92.988V94.914H1160.86V100.566H1158.48V94.914H1152.23V92.988H1167.21ZM1178.55 91.314L1177.31 93.15C1175.56 92.574 1174.35 91.458 1173.65 90.054C1172.93 91.674 1171.65 92.952 1169.76 93.618L1168.52 91.746C1171.29 90.828 1172.41 88.614 1172.41 86.364V84.87H1174.82V86.562C1174.82 88.56 1175.94 90.504 1178.55 91.314ZM1176.41 98.712C1178.51 98.712 1179.65 98.28 1179.65 97.344C1179.65 96.426 1178.51 95.994 1176.41 95.994C1174.28 95.994 1173.15 96.426 1173.15 97.344C1173.15 98.28 1174.28 98.712 1176.41 98.712ZM1176.41 94.158C1179.84 94.158 1182 95.346 1182 97.344C1182 99.36 1179.84 100.548 1176.41 100.548C1172.95 100.548 1170.79 99.36 1170.79 97.344C1170.79 95.346 1172.95 94.158 1176.41 94.158ZM1181.82 87.822H1184.02V89.784H1181.82V93.78H1179.45V83.988H1181.82V87.822Z" fill="white"/>
<path d="M1141.93 79.179C1141.03 79.179 1140.22 79.0128 1139.51 78.6804C1138.81 78.348 1138.25 77.8899 1137.84 77.3061C1137.42 76.7223 1137.21 76.0533 1137.19 75.299H1139.88C1139.91 75.8061 1140.12 76.2173 1140.52 76.5327C1140.91 76.848 1141.38 77.0057 1141.93 77.0057C1142.36 77.0057 1142.75 76.9098 1143.08 76.718C1143.42 76.522 1143.68 76.2514 1143.87 75.9062C1144.06 75.5568 1144.15 75.1562 1144.15 74.7045C1144.15 74.2443 1144.06 73.8395 1143.86 73.4901C1143.67 73.1406 1143.4 72.8679 1143.06 72.6719C1142.72 72.4759 1142.33 72.3757 1141.89 72.3714C1141.51 72.3714 1141.13 72.4503 1140.77 72.608C1140.41 72.7656 1140.14 72.9808 1139.93 73.2536L1137.47 72.8125L1138.09 65.9091H1146.1V68.1719H1140.38L1140.04 71.451H1140.11C1140.34 71.1271 1140.69 70.8587 1141.16 70.6456C1141.62 70.4325 1142.14 70.326 1142.72 70.326C1143.5 70.326 1144.21 70.5114 1144.82 70.8821C1145.44 71.2528 1145.93 71.7621 1146.29 72.4098C1146.65 73.0533 1146.82 73.7947 1146.82 74.6342C1146.82 75.5163 1146.62 76.3004 1146.21 76.9865C1145.8 77.6683 1145.22 78.2053 1144.49 78.5973C1143.75 78.9851 1142.9 79.179 1141.93 79.179ZM1148.55 76.6989V74.5192L1154.02 65.9091H1155.9V68.9261H1154.78L1151.34 74.3786V74.4808H1159.1V76.6989H1148.55ZM1154.83 79V76.0341L1154.89 75.0689V65.9091H1157.48V79H1154.83ZM1165.79 79.179C1164.83 79.179 1163.98 79.0149 1163.24 78.6868C1162.5 78.3544 1161.91 77.8984 1161.48 77.3189C1161.05 76.7351 1160.83 76.0618 1160.82 75.299H1163.61C1163.62 75.6186 1163.73 75.8999 1163.92 76.1428C1164.12 76.3814 1164.38 76.5668 1164.7 76.6989C1165.02 76.831 1165.39 76.897 1165.79 76.897C1166.22 76.897 1166.59 76.8224 1166.91 76.6733C1167.24 76.5241 1167.49 76.3175 1167.67 76.0533C1167.86 75.7891 1167.95 75.4844 1167.95 75.1392C1167.95 74.7898 1167.85 74.4808 1167.65 74.2124C1167.46 73.9396 1167.19 73.7266 1166.82 73.5732C1166.47 73.4197 1166.04 73.343 1165.54 73.343H1164.32V71.3104H1165.54C1165.96 71.3104 1166.33 71.2379 1166.65 71.093C1166.97 70.9482 1167.23 70.7479 1167.4 70.4922C1167.58 70.2322 1167.67 69.9297 1167.67 69.5845C1167.67 69.2564 1167.59 68.9688 1167.44 68.7216C1167.28 68.4702 1167.07 68.2741 1166.78 68.1335C1166.51 67.9929 1166.18 67.9226 1165.81 67.9226C1165.44 67.9226 1165.1 67.9908 1164.78 68.1271C1164.47 68.2592 1164.22 68.4489 1164.04 68.696C1163.85 68.9432 1163.75 69.233 1163.74 69.5653H1161.08C1161.1 68.8111 1161.31 68.1463 1161.73 67.571C1162.15 66.9957 1162.71 66.5462 1163.42 66.2223C1164.13 65.8942 1164.93 65.7301 1165.83 65.7301C1166.73 65.7301 1167.52 65.8942 1168.2 66.2223C1168.87 66.5504 1169.4 66.9936 1169.78 67.5518C1170.16 68.1058 1170.34 68.728 1170.34 69.4183C1170.34 70.1513 1170.11 70.7628 1169.65 71.2528C1169.2 71.7429 1168.6 72.054 1167.87 72.1861V72.2884C1168.83 72.4119 1169.57 72.7464 1170.07 73.2919C1170.58 73.8331 1170.83 74.5107 1170.82 75.3246C1170.83 76.0703 1170.61 76.733 1170.18 77.3125C1169.75 77.892 1169.15 78.348 1168.4 78.6804C1167.64 79.0128 1166.77 79.179 1165.79 79.179ZM1177.6 79.179C1176.69 79.179 1175.89 79.0128 1175.18 78.6804C1174.48 78.348 1173.92 77.8899 1173.5 77.3061C1173.09 76.7223 1172.88 76.0533 1172.86 75.299H1175.54C1175.57 75.8061 1175.79 76.2173 1176.18 76.5327C1176.58 76.848 1177.05 77.0057 1177.6 77.0057C1178.03 77.0057 1178.41 76.9098 1178.75 76.718C1179.08 76.522 1179.34 76.2514 1179.53 75.9062C1179.72 75.5568 1179.82 75.1562 1179.82 74.7045C1179.82 74.2443 1179.72 73.8395 1179.53 73.4901C1179.33 73.1406 1179.07 72.8679 1178.73 72.6719C1178.39 72.4759 1178 72.3757 1177.56 72.3714C1177.17 72.3714 1176.8 72.4503 1176.44 72.608C1176.08 72.7656 1175.8 72.9808 1175.6 73.2536L1173.14 72.8125L1173.76 65.9091H1181.76V68.1719H1176.04L1175.7 71.451H1175.78C1176.01 71.1271 1176.36 70.8587 1176.82 70.6456C1177.29 70.4325 1177.81 70.326 1178.38 70.326C1179.17 70.326 1179.87 70.5114 1180.49 70.8821C1181.11 71.2528 1181.6 71.7621 1181.95 72.4098C1182.31 73.0533 1182.49 73.7947 1182.49 74.6342C1182.49 75.5163 1182.28 76.3004 1181.87 76.9865C1181.46 77.6683 1180.89 78.2053 1180.15 78.5973C1179.42 78.9851 1178.57 79.179 1177.6 79.179Z" fill="#F6E946"/>
<path d="M1290 12L1296.66 21.4098L1305.53 14.0439L1309.53 24.8577L1320 20.039L1321.06 31.5172L1332.43 29.5742L1330.48 40.9368L1341.96 42L1337.14 52.4729L1347.95 56.4709L1340.59 65.3404L1350 72L1340.59 78.6608L1347.95 87.5291L1337.14 91.5271L1341.96 102L1330.48 103.063L1332.43 114.427L1321.06 112.483L1320 123.962L1309.53 119.144L1305.53 129.956L1296.66 122.591L1290 132L1283.34 122.591L1274.47 129.956L1270.47 119.144L1260 123.962L1258.94 112.483L1247.57 114.427L1249.52 103.063L1238.04 102L1242.86 91.5271L1232.04 87.5291L1239.41 78.6608L1230 72L1239.41 65.3404L1232.04 56.4709L1242.86 52.4729L1238.04 42L1249.52 40.9368L1247.57 29.5742L1258.94 31.5172L1260 20.039L1270.47 24.8577L1274.47 14.0439L1283.34 21.4098L1290 12Z" fill="#613B84"/>
<path d="M1254.03 56.6989V54.5192L1259.49 45.9091H1261.37V48.9261H1260.26L1256.81 54.3786V54.4808H1264.58V56.6989H1254.03ZM1260.31 59V56.0341L1260.36 55.0689V45.9091H1262.96V59H1260.31ZM1271.94 45.9091V59H1269.18V48.5362H1269.1L1266.1 50.4155V47.9609L1269.34 45.9091H1271.94Z" fill="#F4E745"/>
<path d="M1275.4 46.022H1281.93C1281.93 50.666 1280.56 54.464 1275.94 57.164L1274.55 55.508C1277.88 53.564 1279.29 51.17 1279.59 47.912H1275.4V46.022ZM1286.7 43.97H1288.97V60.548H1286.7V52.124H1285.23V59.846H1283.01V44.402H1285.23V50.216H1286.7V43.97ZM1305.25 45.428V47.3H1295.49V45.428H1299.16V43.88H1301.56V45.428H1305.25ZM1298.57 50.864C1298.57 51.71 1299.29 52.124 1300.37 52.124C1301.43 52.124 1302.17 51.71 1302.17 50.864C1302.17 50.036 1301.43 49.622 1300.37 49.622C1299.29 49.622 1298.57 50.036 1298.57 50.864ZM1304.44 50.864C1304.44 52.682 1302.76 53.924 1300.37 53.924C1297.99 53.924 1296.3 52.682 1296.3 50.864C1296.3 49.064 1297.99 47.822 1300.37 47.822C1302.76 47.822 1304.44 49.064 1304.44 50.864ZM1297.49 56.948V55.04H1308.54V60.566H1306.17V56.948H1297.49ZM1310.74 48.236V50.198H1308.54V54.356H1306.17V43.988H1308.54V48.236H1310.74ZM1325.14 54.662L1322.76 54.428C1323.3 51.422 1323.32 49.19 1323.32 47.282H1313.51V45.392H1325.7V46.994C1325.7 49.028 1325.7 51.314 1325.14 54.662ZM1321.63 56.642H1327.06V58.55H1312.05V56.642H1315.2V51.404H1317.54V56.642H1319.31V51.404H1321.63V56.642ZM1257.35 66.418C1255.17 66.418 1253.78 67.066 1253.78 68.254C1253.78 69.46 1255.17 70.108 1257.35 70.108C1259.51 70.108 1260.89 69.46 1260.89 68.254C1260.89 67.066 1259.51 66.418 1257.35 66.418ZM1257.35 71.998C1253.8 71.998 1251.35 70.54 1251.35 68.254C1251.35 66.004 1253.8 64.528 1257.35 64.528C1260.88 64.528 1263.34 66.004 1263.34 68.254C1263.34 70.54 1260.88 71.998 1257.35 71.998ZM1264.89 73.24V75.148H1258.52V80.566H1256.14V75.148H1249.88V73.24H1264.89ZM1280.89 69.856L1279.99 71.764C1277.09 71.332 1275.02 69.982 1273.96 68.2C1272.9 69.982 1270.81 71.332 1267.91 71.764L1267.01 69.856C1270.79 69.334 1272.68 67.192 1272.68 65.248V64.456H1275.22V65.248C1275.22 67.174 1277.13 69.334 1280.89 69.856ZM1281.43 72.988V74.914H1275.08V80.566H1272.7V74.914H1266.45V72.988H1281.43ZM1292.75 65.428V67.3H1282.99V65.428H1286.67V63.88H1289.06V65.428H1292.75ZM1286.07 70.864C1286.07 71.71 1286.79 72.124 1287.87 72.124C1288.93 72.124 1289.67 71.71 1289.67 70.864C1289.67 70.036 1288.93 69.622 1287.87 69.622C1286.79 69.622 1286.07 70.036 1286.07 70.864ZM1291.94 70.864C1291.94 72.682 1290.27 73.924 1287.87 73.924C1285.5 73.924 1283.8 72.682 1283.8 70.864C1283.8 69.064 1285.5 67.822 1287.87 67.822C1290.27 67.822 1291.94 69.064 1291.94 70.864ZM1284.99 76.948V75.04H1296.04V80.566H1293.67V76.948H1284.99ZM1298.24 68.236V70.198H1296.04V74.356H1293.67V63.988H1296.04V68.236H1298.24ZM1312.64 74.662L1310.26 74.428C1310.8 71.422 1310.82 69.19 1310.82 67.282H1301.01V65.392H1313.2V66.994C1313.2 69.028 1313.2 71.314 1312.64 74.662ZM1309.13 76.642H1314.57V78.55H1299.55V76.642H1302.7V71.404H1305.04V76.642H1306.81V71.404H1309.13V76.642ZM1325.89 71.314L1324.64 73.15C1322.9 72.574 1321.69 71.458 1320.99 70.054C1320.27 71.674 1318.99 72.952 1317.1 73.618L1315.86 71.746C1318.63 70.828 1319.75 68.614 1319.75 66.364V64.87H1322.16V66.562C1322.16 68.56 1323.28 70.504 1325.89 71.314ZM1323.74 78.712C1325.85 78.712 1326.98 78.28 1326.98 77.344C1326.98 76.426 1325.85 75.994 1323.74 75.994C1321.62 75.994 1320.49 76.426 1320.49 77.344C1320.49 78.28 1321.62 78.712 1323.74 78.712ZM1323.74 74.158C1327.18 74.158 1329.34 75.346 1329.34 77.344C1329.34 79.36 1327.18 80.548 1323.74 80.548C1320.29 80.548 1318.13 79.36 1318.13 77.344C1318.13 75.346 1320.29 74.158 1323.74 74.158ZM1329.16 67.822H1331.36V69.784H1329.16V73.78H1326.79V63.988H1329.16V67.822ZM1286.25 89.856L1285.35 91.764C1282.45 91.332 1280.38 89.982 1279.32 88.2C1278.26 89.982 1276.17 91.332 1273.27 91.764L1272.37 89.856C1276.15 89.334 1278.04 87.192 1278.04 85.248V84.456H1280.58V85.248C1280.58 87.174 1282.49 89.334 1286.25 89.856ZM1286.79 92.988V94.914H1280.44V100.566H1278.06V94.914H1271.82V92.988H1286.79ZM1298.13 91.314L1296.89 93.15C1295.14 92.574 1293.94 91.458 1293.23 90.054C1292.51 91.674 1291.24 92.952 1289.35 93.618L1288.1 91.746C1290.88 90.828 1291.99 88.614 1291.99 86.364V84.87H1294.4V86.562C1294.4 88.56 1295.52 90.504 1298.13 91.314ZM1295.99 98.712C1298.09 98.712 1299.23 98.28 1299.23 97.344C1299.23 96.426 1298.09 95.994 1295.99 95.994C1293.86 95.994 1292.73 96.426 1292.73 97.344C1292.73 98.28 1293.86 98.712 1295.99 98.712ZM1295.99 94.158C1299.43 94.158 1301.59 95.346 1301.59 97.344C1301.59 99.36 1299.43 100.548 1295.99 100.548C1292.53 100.548 1290.37 99.36 1290.37 97.344C1290.37 95.346 1292.53 94.158 1295.99 94.158ZM1301.41 87.822H1303.6V89.784H1301.41V93.78H1299.03V83.988H1301.41V87.822ZM1308.48 85.9091L1308.23 95.0753H1305.89L1305.64 85.9091H1308.48ZM1307.06 99.1662C1306.64 99.1662 1306.28 99.017 1305.98 98.7188C1305.67 98.4162 1305.52 98.054 1305.53 97.6321C1305.52 97.2145 1305.67 96.8565 1305.98 96.5582C1306.28 96.2599 1306.64 96.1108 1307.06 96.1108C1307.47 96.1108 1307.82 96.2599 1308.13 96.5582C1308.44 96.8565 1308.59 97.2145 1308.6 97.6321C1308.59 97.9134 1308.52 98.1712 1308.37 98.4055C1308.23 98.6357 1308.05 98.821 1307.82 98.9616C1307.59 99.098 1307.33 99.1662 1307.06 99.1662Z" fill="white"/>
<defs>
<clipPath id="clip0_342_17142">
<rect width="2000" height="400" fill="white"/>
</clipPath>
<clipPath id="clip1_342_17142">
<rect width="273" height="240" fill="white" transform="translate(853 80)"/>
</clipPath>
</defs>
</svg>
