<svg width="322" height="166" viewBox="0 0 322 166" fill="none" xmlns="http://www.w3.org/2000/svg">
<g clip-path="url(#clip0_40_8227)">
<path d="M274.657 0H205.332C179.192 0 158 20.8047 158 46.4658V114.523C158 140.184 179.192 160.989 205.332 160.989H274.657C300.796 160.989 321.988 140.184 321.988 114.523V46.4658C322 20.8047 300.808 0 274.657 0ZM306.892 115.72C306.892 132.751 292.83 146.568 275.47 146.568H204.519C187.17 146.568 173.096 132.763 173.096 115.72V46.0782C173.096 29.0468 187.158 15.2302 204.519 15.2302H275.47C292.818 15.2302 306.892 29.0354 306.892 46.0782V115.731V115.72Z" fill="white"/>
<path d="M239.994 39.1243C216.491 39.1243 197.447 57.8314 197.447 80.8933C197.447 103.955 216.503 122.662 239.994 122.662C263.486 122.662 282.542 103.955 282.542 80.8933C282.542 57.8314 263.486 39.1243 239.994 39.1243ZM239.994 107.979C224.759 107.979 212.415 95.8499 212.415 80.9047C212.415 65.9595 224.771 53.8301 239.994 53.8301C255.218 53.8301 267.573 65.9595 267.573 80.9047C267.573 95.8499 255.218 107.979 239.994 107.979Z" fill="white"/>
<path d="M283.97 47.2752C289.447 47.2752 293.887 42.9164 293.887 37.5397C293.887 32.1629 289.447 27.8042 283.97 27.8042C278.493 27.8042 274.053 32.1629 274.053 37.5397C274.053 42.9164 278.493 47.2752 283.97 47.2752Z" fill="white"/>
</g>
<g clip-path="url(#clip1_40_8227)">
<path d="M100.634 148.578L101.2 152.483L214.415 135.079L213.842 131.175L100.634 148.578Z" fill="#704E3E"/>
<path d="M101.289 153.137C101.13 153.157 100.968 153.109 100.843 153.011C100.71 152.907 100.619 152.744 100.591 152.574L100.018 148.67C99.9655 148.306 100.199 147.974 100.531 147.918L213.745 130.514C213.903 130.479 214.072 130.534 214.212 130.637C214.352 130.741 214.436 130.904 214.464 131.074L215.036 134.971C215.089 135.335 214.855 135.666 214.524 135.723L101.303 153.135L101.289 153.137ZM101.347 149.146L101.727 151.729L213.71 134.517L213.33 131.934L101.347 149.146Z" fill="black"/>
<path d="M216.107 127.286L213.713 121.629C213.713 121.629 213.115 120.23 212.293 120.258C211.471 120.285 210.883 121.001 210.883 121.001L206.935 125.531L201.096 126.17C201.096 126.17 199.783 126.274 199.537 127.129C199.291 127.983 199.747 129.03 199.747 129.03L202.569 134.338L202.58 134.428L201.4 140.335C201.4 140.335 201.26 141.471 201.742 142.219C202.223 142.96 203.507 142.679 203.507 142.679L209.282 141.586L214.357 144.768C214.357 144.768 215.127 145.284 215.926 145.071C216.724 144.858 216.887 143.341 216.887 143.341L217.561 137.225L221.953 132.964C221.953 132.964 222.735 132.284 222.599 131.364C222.463 130.444 221.435 129.953 221.435 129.953L216.107 127.286Z" fill="#FFF200"/>
<path d="M215.808 145.766C214.905 145.879 214.131 145.386 214.039 145.33L209.179 142.287L203.631 143.336C203.473 143.371 201.938 143.676 201.238 142.592C200.642 141.662 200.771 140.383 200.789 140.245L201.938 134.485L199.215 129.353C199.137 129.174 198.643 127.989 198.947 126.923C199.306 125.676 200.867 125.526 201.042 125.512L206.637 124.903L210.432 120.551C210.499 120.467 211.227 119.635 212.273 119.595C213.481 119.55 214.207 121.182 214.287 121.369L216.581 126.796L221.698 129.353C221.826 129.413 223.037 130.017 223.215 131.272C223.364 132.296 222.737 133.146 222.35 133.489L218.153 137.559L217.505 143.43C217.481 143.629 217.251 145.404 216.084 145.716C215.988 145.743 215.899 145.762 215.802 145.774L215.808 145.766ZM209.206 140.923C209.338 140.906 209.475 140.935 209.598 141.01L214.673 144.192C214.673 144.192 215.255 144.558 215.773 144.417C215.985 144.361 216.225 143.741 216.282 143.243L216.957 137.134C216.973 136.973 217.047 136.836 217.153 136.724L221.544 132.464C221.544 132.464 222.076 131.981 222.002 131.446C221.939 130.993 221.408 130.644 221.206 130.548L215.863 127.876C215.728 127.81 215.614 127.688 215.552 127.537L213.159 121.88C212.961 121.429 212.563 120.896 212.339 120.909C211.798 120.932 211.367 121.432 211.368 121.439L207.407 125.978C207.309 126.096 207.148 126.162 207.024 126.185L201.185 126.824C200.807 126.849 200.225 127.05 200.154 127.324C200.011 127.818 200.242 128.537 200.332 128.745L203.128 134.011C203.165 134.082 203.189 134.162 203.206 134.243L203.217 134.333C203.228 134.415 203.231 134.497 203.212 134.575L202.033 140.482C202.014 140.674 202.001 141.416 202.273 141.843C202.423 142.081 203.032 142.096 203.389 142.021L209.178 140.926C209.178 140.926 209.199 140.924 209.213 140.922L209.206 140.923Z" fill="black"/>
</g>
<path d="M131.874 119.055L134.366 137.663C134.366 137.663 140.172 133.618 141.521 137.762C142.869 141.907 137.656 144.054 133.861 145.523C130.059 146.992 125.214 146.769 123.743 141.645C122.273 136.522 119.21 121.304 119.21 121.304L131.881 119.054L131.874 119.055Z" fill="#F0514F"/>
<path d="M131.182 146.882C129.466 147.096 127.861 146.879 126.554 146.235C124.871 145.399 123.713 143.914 123.115 141.821C121.655 136.726 118.594 121.583 118.568 121.43C118.531 121.255 118.569 121.078 118.67 120.931C118.771 120.784 118.923 120.682 119.099 120.653L131.77 118.403C131.954 118.38 132.13 118.41 132.271 118.519C132.419 118.628 132.514 118.788 132.536 118.965L134.894 136.558C136.136 135.849 138.4 134.811 140.179 135.403C141.132 135.725 141.797 136.442 142.16 137.548C143.739 142.403 137.711 144.735 134.109 146.127C133.124 146.504 132.146 146.761 131.197 146.88L131.182 146.882ZM119.987 121.835C120.592 124.817 123.107 137.031 124.379 141.461C124.871 143.186 125.8 144.393 127.139 145.055C128.837 145.897 131.202 145.848 133.62 144.91C137.9 143.253 141.992 141.351 140.896 137.967C140.667 137.271 140.3 136.846 139.753 136.66C138.215 136.142 135.614 137.596 134.747 138.198C134.562 138.326 134.318 138.349 134.105 138.264C133.891 138.171 133.748 137.979 133.719 137.751L131.32 119.827L119.994 121.834L119.987 121.835Z" fill="black"/>
<path d="M148.671 96.5169L165.927 95.3976C165.927 95.3976 165.527 87.4192 170.975 88.2253C176.431 89.0305 175.309 97.9392 175.309 97.9392C175.309 97.9392 176.279 105.697 167.936 106.74C159.594 107.784 141.97 108.351 141.97 108.351L148.664 96.5178L148.671 96.5169Z" fill="#F0514F"/>
<path d="M168.025 107.387C159.748 108.422 142.178 108.998 142 109.005C141.761 109.013 141.537 108.891 141.414 108.69C141.292 108.488 141.29 108.234 141.406 108.025L148.1 96.1922C148.21 95.999 148.404 95.8702 148.634 95.8563L165.266 94.7776C165.289 93.4068 165.558 90.2336 167.391 88.569C168.359 87.6931 169.603 87.358 171.074 87.5777C176.88 88.4362 176.089 96.997 175.976 97.9456C176.052 98.8554 176.412 106.338 168.018 107.388L168.025 107.387ZM143.131 107.645C147.21 107.494 160.888 106.949 167.861 106.077C175.468 105.125 174.697 98.3073 174.66 98.0129C174.654 97.9614 174.646 97.9025 174.662 97.8482C174.674 97.7645 175.631 89.5716 170.884 88.8722C169.803 88.7159 168.947 88.9276 168.276 89.5423C166.718 90.9557 166.528 94.2236 166.588 95.3598C166.603 95.7168 166.343 96.0333 165.971 96.0499L149.072 97.1471L143.131 107.645Z" fill="black"/>
<path d="M140.62 77.4682C140.62 77.4682 156.62 67.3339 152.391 46.7905C148.161 26.2472 129.916 22.3847 129.916 22.3847C129.916 22.3847 101.859 15.7728 84.2891 43.8569C84.2891 43.8569 77.0336 57.5394 78.0777 73.8392C78.0777 73.8392 88.6593 82.8014 108.403 85.3103C108.403 85.3103 109.324 100.624 104.032 118.052C104.032 118.052 114.454 128.365 131.865 122.868C131.865 122.868 140.853 119.091 144.145 108.221C147.437 97.3515 152.684 95.5365 152.684 95.5365L140.627 77.4673L140.62 77.4682Z" fill="black"/>
<path d="M125.782 124.878C119.538 125.659 114.551 124.474 111.167 123.133C106.313 121.213 103.671 118.628 103.561 118.523L103.279 118.244L103.396 117.863C108.041 102.563 107.862 88.7567 107.766 85.8982C88.4149 83.2954 77.7569 74.44 77.6557 74.348L77.4458 74.1649L77.4256 73.8834C76.3823 57.591 83.6406 43.6913 83.7124 43.5478C92.9293 28.8051 105.03 23.6661 113.558 21.949C122.8 20.0829 129.768 21.6781 130.061 21.7462C130.23 21.7848 148.765 25.9324 153.033 46.6579C156.847 65.1975 144.346 75.5669 141.524 77.6392L153.694 95.8887L152.891 96.1685C152.848 96.1814 147.896 98.0865 144.768 108.42C141.429 119.452 132.49 123.321 132.114 123.48C129.883 124.185 127.77 124.629 125.782 124.878ZM104.777 117.847C106.556 119.389 116.422 127.058 131.66 122.244C131.687 122.225 140.355 118.458 143.509 108.039C146.161 99.2828 150.078 96.2213 151.718 95.2836L139.706 77.276L140.274 76.9134C140.433 76.8113 155.832 66.7672 151.749 46.923C147.653 27.0283 129.957 23.0673 129.78 23.0296C129.487 22.9616 101.951 16.8676 84.8492 44.2054C84.8013 44.3011 77.8044 57.7196 78.7169 73.5051C80.3084 74.7487 90.6957 82.3972 108.479 84.658L109.018 84.725L109.048 85.2669C109.06 85.4224 109.897 100.664 104.768 117.833L104.777 117.847Z" fill="black"/>
<path d="M110.667 84.8702C110.667 84.8702 99.3261 93.7564 87.171 98.7602L89.6655 106.746C89.6655 106.746 101.29 104.133 111.607 99.0226L110.667 84.8702Z" fill="black"/>
<path d="M89.2161 107.519L86.3598 98.3757L86.9148 98.1493C98.8427 93.2412 110.141 84.4351 110.257 84.3459L111.238 83.5803L112.291 99.4154L111.897 99.6142C101.629 104.696 89.9221 107.364 89.8052 107.386L89.2088 107.52L89.2161 107.519ZM87.9807 99.1373L90.1135 105.964C92.5665 105.366 102.209 102.874 110.929 98.629L110.099 86.1371C107.13 88.3474 97.8339 94.982 87.989 99.1437L87.9807 99.1373Z" fill="black"/>
<path d="M136.391 78.1615L161.05 70.936L165.157 77.2246L142.706 88.8236L136.391 78.1615Z" fill="black"/>
<path d="M142.456 89.6996L135.394 77.7781L161.335 70.1678L166.109 77.4794L142.449 89.7005L142.456 89.6996ZM137.391 78.5598L142.956 87.9552L164.212 76.9691L160.771 71.696L137.39 78.5525L137.391 78.5598Z" fill="black"/>
<path d="M116.478 36.8629C116.478 36.8629 136.549 29.3739 145.089 45.1547C153.629 60.9354 138.808 70.9896 138.808 70.9896C138.808 70.9896 127.959 78.7302 111.809 77.9174C95.6576 77.1045 94.2195 60.3457 94.2195 60.3457C94.2195 60.3457 91.9604 43.8391 116.471 36.8638L116.478 36.8629Z" fill="#EBABAB"/>
<path d="M120.213 78.264C117.606 78.5901 114.789 78.7257 111.778 78.5716C95.2431 77.7394 93.5813 60.5676 93.5675 60.3974C93.55 60.2575 91.5173 43.289 116.271 36.2309C117.145 35.9198 137.102 29.0133 145.669 44.8354C154.394 60.9519 139.333 71.4247 139.181 71.5259C138.824 71.7799 131.618 76.83 120.212 78.2567L120.213 78.264ZM123.265 35.999C119.465 36.4743 116.741 37.4729 116.705 37.4848C116.69 37.4867 116.668 37.4894 116.654 37.4987C92.968 44.2438 94.8534 60.0945 94.8736 60.2564C94.9381 60.951 96.4627 76.488 111.839 77.2633C127.576 78.0606 138.317 70.5352 138.426 70.4542C139.026 70.0503 152.666 60.5326 144.515 45.4731C141.101 39.1651 135.412 35.8925 127.609 35.7546C126.073 35.73 124.605 35.8314 123.265 35.999Z" fill="black"/>
<mask id="mask0_40_8227" style="mask-type:luminance" maskUnits="userSpaceOnUse" x="65" y="39" width="53" height="42">
<path d="M86.7431 40.9112C86.7431 40.9112 106.286 33.6229 114.587 48.9326C122.888 64.235 108.451 74.0094 108.451 74.0094C108.451 74.0094 97.8822 81.5357 82.1694 80.7577C66.4492 79.9806 65.0737 63.7223 65.0737 63.7223C65.0737 63.7223 62.891 47.707 86.7514 40.9177L86.7431 40.9112Z" fill="white"/>
</mask>
<g mask="url(#mask0_40_8227)">
<path opacity="0.25" d="M113.012 70.5186C114.079 67.273 111.786 63.6038 107.889 62.3233C103.991 61.0427 99.9665 62.6357 98.8987 65.8813C97.8309 69.127 100.125 72.7962 104.022 74.0767C107.919 75.3573 111.944 73.7643 113.012 70.5186Z" fill="url(#paint0_radial_40_8227)"/>
</g>
<path d="M125.056 67.7489C124.761 67.7859 124.48 67.5708 124.407 67.2489C124.33 66.898 124.52 66.5578 124.836 66.4741C124.856 66.4716 126.58 66.0278 127.199 64.8468C127.436 64.3977 127.473 63.8928 127.32 63.3086C127.184 62.8106 126.935 62.4665 126.554 62.2493C125.503 61.6745 123.724 62.2134 123.122 62.4652C122.825 62.598 122.477 62.4281 122.356 62.0975C122.235 61.7669 122.374 61.3889 122.672 61.2634C122.779 61.2132 125.325 60.1443 127.057 61.0975C127.744 61.475 128.216 62.1076 128.451 62.9686C128.701 63.9011 128.628 64.7564 128.223 65.5207C127.35 67.175 125.218 67.7139 125.128 67.7399C125.108 67.7424 125.089 67.7448 125.069 67.7473L125.056 67.7489Z" fill="black"/>
<path d="M120.958 73.3004C118.664 73.5874 116.08 73.6646 113.196 73.4394C112.832 73.4126 112.567 73.0985 112.599 72.7545C112.63 72.4034 112.959 72.1453 113.316 72.173C121.09 72.792 126.503 71.0009 129.677 69.3886C133.111 67.6424 134.743 65.7239 134.756 65.7078C134.985 65.4332 135.408 65.3876 135.69 65.6054C135.973 65.8232 136.016 66.223 135.787 66.4976C135.558 66.7721 131.06 72.0368 120.958 73.3004Z" fill="black"/>
<path d="M126.837 44.3469C126.591 44.3777 126.337 44.2884 126.198 44.0905C126.005 43.8187 126.095 43.4508 126.406 43.264C130.465 40.8795 135.331 41.9727 135.534 42.0213C135.886 42.1051 136.094 42.4289 135.989 42.7447C135.884 43.0605 135.514 43.2549 135.162 43.1711C135.115 43.1634 130.664 42.1664 127.121 44.2442C127.028 44.2961 126.934 44.3281 126.837 44.3403L126.837 44.3469Z" fill="black"/>
<path d="M103.597 52.2928C103.417 52.3153 103.225 52.2419 103.078 52.0816C102.832 51.8037 102.817 51.3506 103.057 51.0688C103.191 50.9058 106.46 47.1503 110.926 47.5015C111.268 47.5318 111.536 47.872 111.528 48.2628C111.521 48.6536 111.228 48.9583 110.886 48.928C106.988 48.6114 103.989 52.0488 103.965 52.0843C103.867 52.2021 103.735 52.2675 103.603 52.2839L103.597 52.2928Z" fill="black"/>
<path d="M125.842 56.488C126.957 58.893 130.46 59.745 134.402 58.0831C138.343 56.4211 140.027 53.3809 138.911 50.9759C137.796 48.5708 134.293 47.7188 130.351 49.3808C126.41 51.0428 124.726 54.083 125.842 56.488Z" fill="white"/>
<path d="M117.927 59.1274C118.437 61.8338 116.127 64.5431 111.974 65.3306C107.822 66.1181 104.678 64.4411 104.16 61.7355C103.642 59.03 105.96 56.3198 110.112 55.5323C114.265 54.7448 117.408 56.4219 117.927 59.1274Z" fill="white"/>
<path d="M106.957 56.9115C108.735 57.1146 110.349 58.4373 110.953 60.3829C111.589 62.4166 110.912 64.5224 109.43 65.6722C106.616 65.549 104.592 64.0576 104.184 61.9245C103.817 60.006 104.857 58.0959 106.95 56.9123L106.957 56.9115Z" fill="#005CA3"/>
<path d="M128.622 50.1702C130.257 50.5098 131.696 51.7485 132.261 53.5099C132.967 55.7149 132.064 58.0111 130.22 59.0406C128.17 59.0008 126.547 58.0674 125.843 56.5095C124.899 54.41 125.929 51.8639 128.615 50.1711L128.622 50.1702Z" fill="#005CA3"/>
<path d="M111.895 66.3717C107.955 66.8646 104.763 65.0193 104.17 61.8057C103.538 58.3916 106.181 55.3186 110.452 54.484C112.549 54.0795 114.474 54.297 116.028 55.1143C117.581 55.9317 118.608 57.289 118.909 58.9347C119.21 60.5804 118.742 62.2275 117.591 63.5727C116.433 64.9189 114.725 65.8518 112.628 66.2563C112.384 66.3026 112.133 66.3419 111.895 66.3717ZM111.357 55.7459C111.141 55.773 110.924 55.8001 110.711 55.8505C107.176 56.5376 104.963 58.9405 105.444 61.5594C105.926 64.1784 108.842 65.576 112.383 64.888C114.172 64.5379 115.684 63.7323 116.636 62.6174C117.506 61.5997 117.866 60.3771 117.643 59.18C117.42 57.9829 116.649 56.9807 115.48 56.3604C114.35 55.7667 112.909 55.5519 111.357 55.7459Z" fill="black"/>
<path d="M132.182 59.7954C131.266 59.91 130.376 59.877 129.547 59.6842C127.845 59.2892 126.555 58.265 125.91 56.7954C124.582 53.7394 126.546 50.2109 130.578 48.3994C134.618 46.587 138.512 47.4829 139.84 50.539C140.478 52.0094 140.359 53.6734 139.502 55.2169C138.645 56.7603 137.146 58.0498 135.165 58.936C134.149 59.3897 133.143 59.6827 132.176 59.8038L132.182 59.7954ZM133.747 48.8541C132.911 48.9586 132.019 49.207 131.117 49.6162C127.776 51.1208 126.092 53.9077 127.115 56.2496C127.584 57.3232 128.549 58.0763 129.837 58.3712C131.241 58.6972 132.953 58.4602 134.644 57.6939C136.337 56.9351 137.663 55.8117 138.366 54.5306C139.017 53.3625 139.115 52.1267 138.646 51.0531C137.904 49.3449 136.011 48.5558 133.745 48.8391L133.747 48.8541Z" fill="black"/>
<path d="M132.012 59.8242C131.867 59.8423 131.709 59.8176 131.575 59.7381C131.257 59.5482 131.154 59.1537 131.355 58.8397C131.367 58.8159 132.728 56.6307 132.005 54.2542C131.294 51.9132 129.462 51.3274 129.446 51.322C129.092 51.2108 128.898 50.8423 129.011 50.5023C129.131 50.1613 129.509 49.9659 129.871 50.0761C129.976 50.1075 132.404 50.8854 133.312 53.8758C134.207 56.8161 132.579 59.4051 132.507 59.5104C132.39 59.688 132.21 59.7994 132.004 59.8252L132.012 59.8242Z" fill="black"/>
<path d="M110.706 66.5205C110.562 66.5384 110.413 66.5093 110.279 66.4222C109.954 66.2234 109.846 65.7899 110.035 65.4549C110.047 65.4295 111.363 63.0457 110.603 60.4108C109.859 57.8456 108.059 57.1529 107.985 57.1221C107.631 56.9908 107.443 56.5913 107.566 56.2247C107.689 55.858 108.065 55.6673 108.418 55.7907C108.523 55.8256 110.948 56.7196 111.905 60.0084C112.84 63.2441 111.277 66.0499 111.208 66.1703C111.102 66.3672 110.908 66.4792 110.712 66.5038L110.706 66.5205Z" fill="black"/>
<path d="M87.203 98.7786C87.203 98.7786 81.5791 99.3176 82.044 101.061C82.044 101.061 82.2014 102.14 83.8794 101.684C83.8794 101.684 81.7752 102.021 82.1158 103.19C82.4564 104.358 83.4661 104.18 84.44 103.834C84.44 103.834 82.5107 104.434 83.0391 105.728C83.5675 107.022 85.6357 105.799 85.6357 105.799C85.6357 105.799 83.584 106.557 84.2293 107.829C84.8745 109.101 89.2097 106.93 89.6865 106.735L87.1956 98.7795L87.203 98.7786Z" fill="#EBABAB"/>
<path d="M85.628 108.85C84.7002 108.966 83.9758 108.795 83.638 108.127C83.4392 107.734 83.3876 107.321 83.4953 106.927C83.4566 106.917 83.418 106.907 83.3784 106.889C82.9412 106.742 82.6098 106.425 82.4266 105.977C82.2324 105.5 82.2398 105.021 82.4469 104.584C82.4229 104.572 82.4073 104.566 82.3834 104.554C81.9443 104.333 81.6396 103.93 81.4804 103.374C81.3598 102.948 81.4132 102.538 81.6442 102.172C81.6939 102.091 81.7519 102.017 81.8108 101.95C81.5199 101.657 81.4269 101.332 81.4021 101.194C81.299 100.788 81.3754 100.382 81.6294 100.021C82.605 98.6136 86.388 98.1853 87.1419 98.1134C87.4521 98.0821 87.7383 98.278 87.835 98.5724L90.3259 106.528C90.4271 106.86 90.2614 107.209 89.9411 107.339C89.8914 107.36 89.792 107.402 89.665 107.463C88.2494 108.104 86.7896 108.69 85.6409 108.834L85.628 108.85ZM85.3491 106.68C85.0987 106.831 84.8622 107.032 84.7821 107.229C84.7535 107.3 84.7416 107.384 84.8198 107.531C84.8686 107.562 85.4789 107.897 88.8863 106.38L86.7323 99.5027C85.1805 99.7118 83.1178 100.202 82.7054 100.791C82.6677 100.848 82.6704 100.87 82.6741 100.9C82.6769 100.922 82.6806 100.951 82.6833 100.973C82.6833 100.973 82.7137 101.037 82.7864 101.08C82.8509 101.117 83 101.173 83.3534 101.129C83.5421 101.083 83.6885 101.057 83.7538 101.041C84.0833 100.985 84.4257 101.212 84.4985 101.554C84.5712 101.896 84.3668 102.235 84.0272 102.33C83.8901 102.37 83.7584 102.394 83.6342 102.417C83.2586 102.524 82.8472 102.702 82.7285 102.889C82.7092 102.914 82.6972 102.938 82.722 103.017C82.7773 103.219 82.8601 103.343 82.9641 103.398C83.1556 103.493 83.5311 103.446 84.0907 103.257C84.1552 103.234 84.1984 103.221 84.2196 103.211C84.5648 103.1 84.9256 103.294 85.0425 103.631C85.152 103.969 84.9744 104.342 84.6375 104.459C84.6016 104.471 84.5657 104.483 84.5225 104.496C84.2371 104.606 83.7521 104.854 83.6168 105.147C83.5809 105.219 83.5551 105.312 83.6287 105.482C83.6729 105.596 83.7291 105.627 83.7834 105.642C84.0098 105.719 84.4019 105.625 84.7655 105.482C85.0793 105.301 85.3361 105.201 85.3932 105.179C85.7154 105.064 86.0697 105.207 86.2133 105.518C86.3569 105.829 86.2456 106.194 85.9529 106.365C85.8627 106.421 85.6316 106.547 85.3334 106.674L85.3491 106.68Z" fill="black"/>
<path d="M165.159 77.2395C165.159 77.2395 168.999 76.9087 168.421 75.3963C168.421 75.3963 168.182 74.4468 166.727 75.0101C166.727 75.0101 168.58 74.5167 168.168 73.4992C167.758 72.4891 166.87 72.7422 166.029 73.1389C166.029 73.1389 167.698 72.4293 167.103 71.3152C166.507 70.2012 164.777 71.4941 164.777 71.4941C164.777 71.4941 166.538 70.6308 165.85 69.5508C165.154 68.4718 161.486 70.7171 161.072 70.9334L165.166 77.2386L165.159 77.2395Z" fill="#EBABAB"/>
<path d="M165.565 77.8539C165.41 77.8733 165.292 77.888 165.219 77.8972C164.975 77.9202 164.744 77.8071 164.613 77.5992L160.519 71.294C160.417 71.1422 160.386 70.9518 160.43 70.7668C160.475 70.5819 160.599 70.4393 160.76 70.3519C160.795 70.3325 160.865 70.2939 160.949 70.246C163.162 68.9899 165.543 67.8773 166.397 69.1983C166.609 69.523 166.691 69.8791 166.653 70.2351C166.668 70.2333 166.684 70.2388 166.699 70.2443C167.123 70.3409 167.462 70.6049 167.677 71.0041C167.891 71.4034 167.937 71.8312 167.817 72.2424C168.241 72.4061 168.568 72.7465 168.773 73.2516C168.926 73.6361 168.916 74.0335 168.736 74.3924C168.707 74.4559 168.677 74.512 168.638 74.5617C168.899 74.7981 169.008 75.0686 169.045 75.1835C169.203 75.6123 169.153 76.052 168.924 76.432C168.313 77.4055 166.427 77.7535 165.566 77.8613L165.565 77.8539ZM162.005 71.1604L165.497 76.5319C166.512 76.3974 167.592 76.0679 167.811 75.7265C167.823 75.7026 167.836 75.686 167.806 75.6226C167.803 75.6005 167.792 75.572 167.782 75.5508C167.751 75.48 167.567 75.4432 167.255 75.5196C167.09 75.5776 166.96 75.6163 166.895 75.6319C166.562 75.7258 166.209 75.5308 166.1 75.2005C165.992 74.8702 166.163 74.505 166.492 74.3817C166.613 74.3366 166.728 74.2997 166.843 74.2629C167.171 74.1322 167.491 73.9427 167.569 73.7909C167.498 73.5756 167.427 73.4873 167.355 73.4514C167.244 73.4054 166.991 73.4146 166.41 73.6742C166.354 73.7036 166.318 73.7156 166.297 73.7257C165.964 73.872 165.586 73.7175 165.44 73.3919C165.295 73.0662 165.434 72.6825 165.758 72.5224C165.793 72.5031 165.829 72.4911 165.856 72.4727C166.117 72.343 166.48 72.0807 166.563 71.8461C166.579 71.7918 166.593 71.7228 166.533 71.6032C166.492 71.5186 166.455 71.5158 166.432 71.5112C166.239 71.468 165.917 71.583 165.623 71.7395C165.362 71.9291 165.137 72.0468 165.08 72.0689C164.778 72.2189 164.405 72.1086 164.226 71.817C164.048 71.5253 164.12 71.15 164.394 70.9439C164.469 70.8896 164.661 70.746 164.928 70.608C165.132 70.4479 165.31 70.2611 165.357 70.0982C165.374 70.0513 165.381 69.9906 165.309 69.8875C165.279 69.8912 164.699 69.6797 162.025 71.1429L162.005 71.1604Z" fill="black"/>
<defs>
<radialGradient id="paint0_radial_40_8227" cx="0" cy="0" r="1" gradientUnits="userSpaceOnUse" gradientTransform="translate(116.525 69.6068) rotate(-161.37) scale(7.39378 6.18091)">
<stop stop-color="#D9315C" stop-opacity="0.8"/>
<stop offset="0.14" stop-color="#D9315D" stop-opacity="0.78"/>
<stop offset="0.26" stop-color="#D93160" stop-opacity="0.73"/>
<stop offset="0.38" stop-color="#D93166" stop-opacity="0.65"/>
<stop offset="0.49" stop-color="#D9316F" stop-opacity="0.54"/>
<stop offset="0.54" stop-color="#D93174" stop-opacity="0.47"/>
<stop offset="0.58" stop-color="#D9366F" stop-opacity="0.42"/>
<stop offset="0.77" stop-color="#DB4F5A" stop-opacity="0.19"/>
<stop offset="0.91" stop-color="#DD5E4D" stop-opacity="0.05"/>
<stop offset="1" stop-color="#DE6449" stop-opacity="0"/>
</radialGradient>
<clipPath id="clip0_40_8227">
<rect width="164" height="161" fill="white" transform="translate(158)"/>
</clipPath>
<clipPath id="clip1_40_8227">
<rect width="119" height="27" fill="white" transform="translate(103.689 132.905) rotate(-7.12966)"/>
</clipPath>
</defs>
</svg>
